<?xml version="1.0" encoding="UTF-8"?>
<svg version="1.1" xmlns="http://www.w3.org/2000/svg" width="2500" height="2500">
<path d="M0 0 C3.48377768 0.00008048 6.96742164 -0.00674814 10.45117188 -0.02050781 C42.26083843 -0.14398537 73.97207096 0.86211214 105.64892578 3.93530273 C106.51639435 4.01767181 107.38386292 4.10004089 108.27761841 4.18490601 C193.45385633 12.34542934 277.1002574 33.7325244 395.39892578 90.18530273 C396.21941406 90.65613281 397.03990234 91.12696289 397.88525391 91.61206055 C423.08614311 106.16791856 447.71189978 122.50491073 469.63818359 141.69580078 C470.96437502 142.817694 472.31762725 143.90771474 473.68310547 144.98144531 C481.55859714 151.21171441 488.60171178 158.11503264 495.66162109 165.2421875 C497.65422336 167.25314912 499.65481511 169.25588968 501.65673828 171.25756836 C507.78157303 177.39949669 513.7903103 183.56277512 519.39892578 190.18530273 C521.01860395 191.96100494 522.64304296 193.73238581 524.27392578 195.49780273 C528.72046073 200.38498529 532.98054902 205.37756283 537.09277344 210.54907227 C538.01162872 211.70013172 538.93632626 212.84653975 539.86523438 213.98950195 C554.55872958 232.0867551 568.09051792 251.78175338 579.39892578 272.18530273 C579.84896973 272.99257813 580.29901367 273.79985352 580.76269531 274.6315918 C588.4215726 288.49771316 594.72580393 302.63129877 600.32666016 317.44116211 C601.26740128 319.84870543 602.2764327 322.1952428 603.35205078 324.54467773 C608.86263871 336.89067727 610.24872476 352.09078393 605.39892578 364.93530273 C599.62981827 376.1818213 591.39882839 384.59615561 579.29736328 388.66186523 C568.85816734 391.54016206 557.58242934 390.85489434 547.87548828 385.89624023 C545.59393351 384.44009435 543.49681562 382.89439446 541.39892578 381.18530273 C540.77244141 380.68256836 540.14595703 380.17983398 539.50048828 379.66186523 C530.86734126 371.93350218 527.75735158 360.58541836 524.13623047 349.95410156 C512.66707646 316.61216495 492.69941916 284.34311601 468.62939453 258.59155273 C466.73504433 256.54791048 464.89592486 254.47445827 463.06689453 252.37280273 C429.21751235 213.57436388 389.22569002 184.21231314 344.39892578 159.18530273 C343.60292969 158.73960937 342.80693359 158.29391602 341.98681641 157.8347168 C269.00579251 117.26411154 182.16592131 96.13522018 58.39892578 85.18530273 C57.39249023 85.12745605 56.38605469 85.06960938 55.34912109 85.01000977 C-18.83484661 80.86132123 -95.18768085 84.79649162 -167.60107422 102.18530273 C-169.32922363 102.5978833 -169.32922363 102.5978833 -171.09228516 103.01879883 C-221.33315402 115.22447991 -270.11878662 134.84869106 -314.60107422 161.18530273 C-315.33616211 161.62052246 -316.07125 162.05574219 -316.82861328 162.50415039 C-333.70980974 172.5920847 -349.75986832 184.00263544 -364.79541016 196.67211914 C-366.46879104 198.07444671 -368.15980886 199.45104499 -369.85888672 200.82202148 C-378.00001899 207.48451614 -385.462089 214.83536398 -392.91357422 222.24780273 C-393.42581543 222.75477692 -393.93805664 223.2617511 -394.46582031 223.78408813 C-401.3168126 230.58054393 -407.5948226 237.61674446 -413.60107422 245.18530273 C-414.57750564 246.35924549 -415.55739984 247.53032698 -416.54248047 248.69702148 C-455.68019567 295.76349795 -484.47818236 361.04024481 -484.80419922 422.94311523 C-484.81121353 423.84087677 -484.81822784 424.73863831 -484.82545471 425.66360474 C-484.84286098 428.54588907 -484.84930742 431.42796776 -484.85107422 434.31030273 C-484.85174896 435.29639526 -484.85242371 436.28248779 -484.8531189 437.29846191 C-484.83696222 452.15716823 -484.32897499 466.54246368 -481.60107422 481.18530273 C-481.42946777 482.15693359 -481.25786133 483.12856445 -481.08105469 484.12963867 C-478.43557029 498.88666603 -474.51726587 513.0323707 -469.60107422 527.18530273 C-469.24408447 528.23476074 -469.24408447 528.23476074 -468.87988281 529.30541992 C-453.48943151 574.23794853 -424.51794878 620.86707174 -387.55419922 651.54077148 C-385.17324555 653.54553448 -382.93300703 655.68016146 -380.66357422 657.81030273 C-373.39139021 664.45944851 -365.48737674 670.29124115 -357.60107422 676.18530273 C-356.94840576 676.73839111 -356.2957373 677.29147949 -355.62329102 677.86132812 C-351.81592907 680.3540631 -347.8836169 678.98553675 -343.60107422 678.18530273 C-338.2173767 677.02662104 -332.87776251 675.68450764 -327.53521729 674.35128784 C-236.59664031 651.78775957 -141.42140265 640.27332937 -47.87750244 636.28503418 C-46.25750593 636.21406133 -44.63768626 636.13900111 -43.01800537 636.06115723 C-24.07339939 635.15340943 -5.14446195 634.96595832 13.81787109 634.94506836 C17.19102865 634.94069542 20.56392877 634.92680954 23.93701172 634.90405273 C90.23849303 634.4665438 170.07106427 639.98696416 220.71142578 688.06030273 C237.51407331 705.52512357 245.11391396 726.76874683 244.9375 750.75024414 C244.3044753 771.78002457 236.63604374 789.71209392 222.39892578 805.18530273 C221.93921387 805.69270996 221.47950195 806.20011719 221.00585938 806.72290039 C180.48217602 851.01497675 112.56550922 862.91463677 55.39892578 866.18530273 C50.63430032 866.33235689 45.87266093 866.3714596 41.10595703 866.38842773 C39.76393606 866.39545518 38.42191539 866.40254194 37.07989502 866.40968323 C32.79040057 866.42915353 28.50095993 866.43412141 24.21142578 866.43530273 C23.47745953 866.43574459 22.74349327 866.43618645 21.98728561 866.43664169 C-3.31724492 866.44461918 -28.40820632 865.7104322 -53.60107422 863.18530273 C-54.46575317 863.10044617 -55.33043213 863.0155896 -56.22131348 862.92816162 C-137.78165089 854.89742747 -218.95816336 837.07899541 -360.90576172 772.09936523 C-367.20643089 769.96261656 -375.30435942 773.94231648 -381.39404297 776.02124023 C-382.61750175 776.43382835 -382.61750175 776.43382835 -383.86567688 776.85475159 C-386.50902892 777.74976647 -389.14917696 778.65369528 -391.78857422 779.56030273 C-392.69945801 779.87242706 -393.6103418 780.18455139 -394.54882812 780.50613403 C-467.32672407 805.50960736 -539.17054806 840.69257493 -595.86669922 893.63452148 C-598.4525996 896.04679713 -601.08013523 898.40179162 -603.72607422 900.74780273 C-610.76403702 907.07406143 -617.50791171 913.69640823 -623.65185547 920.90014648 C-625.1515543 922.65831044 -626.67426437 924.39686523 -628.20654297 926.12670898 C-686.41939522 992.17401637 -712.79965298 1078.56838634 -712.85107422 1165.62280273 C-712.85174896 1166.65587555 -712.85242371 1167.68894836 -712.8531189 1168.75332642 C-712.75873429 1260.25434935 -680.11160341 1342.76229435 -618.60107422 1410.18530273 C-617.69298922 1411.19784588 -616.78546249 1412.21088992 -615.87841797 1413.22436523 C-611.43253811 1418.16866901 -606.97874498 1422.95241539 -601.87060547 1427.22827148 C-599.43179195 1429.33127591 -597.1037501 1431.52720067 -594.76708984 1433.7421875 C-587.95728174 1440.17975828 -580.90674146 1446.100772 -573.44921875 1451.76977539 C-571.54614663 1453.22737277 -569.66439998 1454.70947403 -567.78466797 1456.19702148 C-499.75575299 1509.67087413 -415.28024917 1543.67678334 -313.60107422 1570.18530273 C-312.30093749 1570.5116114 -311.000807 1570.83794489 -309.70068359 1571.16430664 C-250.72870903 1585.84466409 -190.25617129 1593.87047734 -129.72607422 1598.43530273 C-128.07703598 1598.55992889 -128.07703598 1598.55992889 -126.39468384 1598.68707275 C-123.19560387 1598.92602563 -119.99614637 1599.15876811 -116.79638672 1599.38842773 C-115.89036209 1599.45486481 -114.98433746 1599.52130188 -114.05085754 1599.5897522 C-96.60834472 1600.80582501 -79.18047006 1601.34617603 -61.69873047 1601.35327148 C-59.76094033 1601.35650589 -57.82315042 1601.35987134 -55.88536072 1601.36335754 C-51.84926796 1601.36928378 -47.81319639 1601.37120456 -43.77709961 1601.37060547 C-39.73180614 1601.37052481 -35.68662737 1601.37738266 -31.64135742 1601.39111328 C2.7878444 1601.50599797 37.0369493 1600.50062982 71.33642578 1597.37280273 C72.75722443 1597.24533661 72.75722443 1597.24533661 74.20672607 1597.11529541 C171.39635094 1588.3450273 268.83556838 1568.81033531 430.39892578 1508.18530273 C431.01110962 1507.91627136 431.62329346 1507.64723999 432.25402832 1507.37005615 C464.16393533 1493.34616058 495.8525873 1478.29774768 525.92041016 1460.62963867 C528.48715986 1459.133885 531.07211412 1457.67509966 533.66455078 1456.22436523 C564.64383419 1438.85680232 594.13669651 1418.66904189 622.39892578 1397.18530273 C623.41341797 1396.41702148 624.42791016 1395.64874023 625.47314453 1394.85717773 C643.2912282 1381.26897124 660.4535023 1366.92850277 676.83300781 1351.63793945 C678.36484829 1350.216915 679.90823659 1348.80992816 681.45751953 1347.40795898 C690.69684692 1339.04336966 699.73535136 1330.47787803 707.82470703 1320.97827148 C709.44659768 1319.13100645 711.14552784 1317.4077356 712.89892578 1315.68530273 C715.91306161 1312.71794951 718.69809911 1309.61184981 721.45751953 1306.40795898 C723.68696639 1303.85553391 725.9789396 1301.3664276 728.27392578 1298.87280273 C732.34629822 1294.40791247 736.20521176 1289.81922118 739.99658203 1285.11499023 C742.18413262 1282.44724561 744.42377655 1279.84106814 746.69189453 1277.24243164 C753.1174528 1269.86501529 759.04109724 1262.20207827 764.82617188 1254.31567383 C766.42395388 1252.15140096 768.04356426 1250.00505971 769.66845703 1247.86108398 C793.89888077 1215.72054068 815.10208698 1181.03958819 830.75878906 1143.94042969 C842.56375606 1116.01165567 842.56375606 1116.01165567 858.56689453 1108.31420898 C868.75567396 1104.2527507 881.58890301 1104.94896264 891.71923828 1108.86108398 C902.36014563 1114.11949155 910.48844676 1123.00049177 914.39892578 1134.18530273 C915.68107034 1138.08336638 915.65673662 1142.05757497 915.71142578 1146.12280273 C915.75493164 1147.14857422 915.75493164 1147.14857422 915.79931641 1148.19506836 C915.93877064 1159.96285988 910.35577099 1171.28320935 905.89892578 1181.93530273 C905.64014648 1182.55614746 905.38136719 1183.17699219 905.11474609 1183.81665039 C893.60135637 1211.38007001 879.64508924 1237.13964188 863.39892578 1262.18530273 C862.72603516 1263.22428711 862.05314453 1264.26327148 861.35986328 1265.33374023 C859.40322829 1268.3061602 857.41020491 1271.24954092 855.39892578 1274.18530273 C854.92293945 1274.88139648 854.44695312 1275.57749023 853.95654297 1276.29467773 C836.95356871 1301.08678209 818.3231125 1324.61620516 798.8359375 1347.49389648 C797.40493577 1349.1782288 795.98155543 1350.86876553 794.55908203 1352.56030273 C788.4914762 1359.74406105 782.21709493 1366.68929378 775.73779297 1373.50488281 C772.80948238 1376.5888445 769.93765165 1379.69650037 767.16748047 1382.92382812 C763.46054366 1387.1720716 759.55062843 1391.17825143 755.55908203 1395.15795898 C754.83329453 1395.88470322 754.10750702 1396.61144745 753.35972595 1397.36021423 C751.83569022 1398.8849257 750.31041009 1400.40839424 748.78393555 1401.93066406 C746.46760115 1404.24164165 744.15665501 1406.55791044 741.84619141 1408.87475586 C740.35497544 1410.36531094 738.86344925 1411.85555574 737.37158203 1413.34545898 C736.6911232 1414.02794205 736.01066437 1414.71042511 735.30958557 1415.41358948 C731.37168344 1419.33261289 727.33027905 1423.07530991 723.12078857 1426.70155334 C720.90355585 1428.61216882 718.74654613 1430.58555173 716.58642578 1432.56030273 C711.33755352 1437.29145619 705.89330502 1441.74407059 700.39892578 1446.18530273 C699.16772491 1447.19613041 697.9372996 1448.20790323 696.70751953 1449.22045898 C688.14780803 1456.25221901 679.4401202 1463.03256387 670.52783203 1469.61108398 C668.29211363 1471.26428493 666.06402318 1472.92742854 663.83642578 1474.59155273 C653.58227345 1482.22884284 643.16737687 1489.58537275 632.5625 1496.72729492 C630.60942665 1498.04344862 628.66170507 1499.36708526 626.71533203 1500.69311523 C577.15510408 1534.29198376 523.32588285 1562.41435413 468.39892578 1586.18530273 C467.62242676 1586.52241272 466.84592773 1586.85952271 466.04589844 1587.20684814 C376.46580846 1626.06356823 282.77467791 1651.77787335 22.39892578 1686.18530273 C21.2282959 1686.24314941 20.05766602 1686.30099609 18.8515625 1686.3605957 C-84.81403112 1691.34068195 -190.49983057 1683.63843045 -395.54150391 1635.85205078 C-397.6206348 1635.17897036 -399.7022103 1634.51402875 -401.78466797 1633.85131836 C-447.89675536 1619.15573755 -493.07545132 1600.3252996 -535.60107422 1577.18530273 C-537.02395752 1576.41210693 -537.02395752 1576.41210693 -538.47558594 1575.62329102 C-570.85409955 1557.94851782 -602.39768366 1538.07573102 -630.60107422 1514.18530273 C-631.66712897 1513.29295556 -632.73355537 1512.40105225 -633.80029297 1511.50952148 C-640.52762741 1505.87087945 -647.11639548 1500.10257208 -653.60107422 1494.18530273 C-654.48794922 1493.39124023 -655.37482422 1492.59717773 -656.28857422 1491.77905273 C-662.49476675 1486.17998773 -668.4924239 1480.39777171 -674.41357422 1474.49780273 C-675.11877197 1473.79719727 -675.82396973 1473.0965918 -676.55053711 1472.37475586 C-681.10446741 1467.80739847 -685.40436084 1463.08115455 -689.60107422 1458.18530273 C-690.58615557 1457.05587661 -691.57180666 1455.92694709 -692.55810547 1454.79858398 C-755.5185167 1382.23128242 -794.0044088 1288.29258655 -795.98779678 1171.36296844 C-795.97582691 1169.20317944 -795.96889447 1167.04341948 -795.96298218 1164.88360596 C-795.89736407 1144.18796113 -795.49158853 1123.71500437 -792.60107422 1103.18530273 C-792.42946777 1101.89366211 -792.25786133 1100.60202148 -792.08105469 1099.27124023 C-788.06029977 1069.1966851 -781.25671861 1039.97597526 -771.60107422 1011.18530273 C-771.27526367 1010.20803223 -770.94945312 1009.23076172 -770.61376953 1008.22387695 C-757.48284616 969.31416155 -738.08383066 932.14891119 -713.60107422 899.18530273 C-713.07126953 898.47148438 -712.54146484 897.75766602 -711.99560547 897.0222168 C-701.99717625 883.62170923 -691.36699233 870.93812992 -679.99365234 858.69116211 C-678.55813333 857.13886876 -677.13297521 855.57763196 -675.71044922 854.01342773 C-669.06251823 846.70533045 -662.37605813 839.63240982 -654.87841797 833.18530273 C-652.70337647 831.27514622 -650.58624906 829.31166547 -648.47363281 827.33300781 C-642.63071665 821.8796829 -636.54721617 816.87079787 -630.21826172 811.99389648 C-627.79598282 810.12653253 -625.40933739 808.2248347 -623.04638672 806.28295898 C-613.30184593 798.28879222 -603.09731397 791.15507208 -592.60107422 784.18530273 C-591.80572266 783.65291992 -591.01037109 783.12053711 -590.19091797 782.57202148 C-550.05989459 755.7527522 -507.00719742 734.28510957 -462.22607422 716.45483398 C-457.29342627 714.48728894 -452.43221091 712.38966135 -447.60107422 710.18530273 C-448.31126709 709.4855835 -449.02145996 708.78586426 -449.75317383 708.06494141 C-452.43673397 705.41812469 -455.11322322 702.76424776 -457.7878418 700.10839844 C-458.93702504 698.96915095 -460.08801088 697.83171833 -461.2409668 696.69628906 C-468.52952125 689.51561917 -475.24123401 682.21166508 -481.60107422 674.18530273 C-482.53554024 673.08320867 -483.47688912 671.98685875 -484.42919922 670.90014648 C-546.86266965 599.30305378 -574.0164065 501.03191481 -567.91357422 407.37280273 C-561.19734379 319.10502573 -523.08671133 238.31051643 -463.01904297 173.72094727 C-461.55486449 172.1352581 -460.10783735 170.53523354 -458.66357422 168.93139648 C-452.00214637 161.56378329 -445.00903059 154.79532764 -437.60107422 148.18530273 C-435.74643167 146.47748605 -433.89225429 144.76916405 -432.03857422 143.06030273 C-404.26469696 117.89393031 -372.57927606 96.85363233 -339.60107422 79.18530273 C-338.74352539 78.7230127 -337.88597656 78.26072266 -337.00244141 77.78442383 C-258.63952628 35.67876707 -170.69606875 11.86764501 -55.7255249 1.32632446 C-54.33324134 1.23390423 -52.94117487 1.13813902 -51.54937744 1.03866577 C-34.3939573 -0.16184626 -17.18760465 -0.00205102 0 0 Z M-95.00195312 718.02709961 C-97.65966677 718.18886914 -100.31777501 718.34207603 -102.97607422 718.49389648 C-151.29609286 721.29282055 -199.08753106 728.01994801 -246.60107422 737.18530273 C-241.39274548 740.6575219 -235.20138196 742.21458952 -229.28857422 744.18530273 C-228.56168396 744.42762634 -227.8347937 744.66994995 -227.08587646 744.9196167 C-161.25034108 766.72912172 -90.79554837 778.57860492 -21.60107422 782.18530273 C-20.82274231 782.22660309 -20.0444104 782.26790344 -19.24249268 782.31045532 C-3.85927208 783.10876143 11.49620082 783.38812953 26.89892578 783.37280273 C28.03167938 783.37219849 29.16443298 783.37159424 30.33151245 783.37097168 C97.62770147 784.68498841 97.62770147 784.68498841 157.01220703 757.72436523 C160.36042105 754.15922468 161.39892578 751.0267676 161.39892578 746.18530273 C158.59766741 739.00707817 151.84483386 735.16994877 145.14892578 732.12280273 C123.71049092 723.21298574 100.08392488 720.52088692 77.14892578 718.49780273 C76.11842606 718.40653107 76.11842606 718.40653107 75.06710815 718.31341553 C56.9586925 716.73806384 38.87289463 716.02738284 20.69970703 716.01733398 C18.8660681 716.01329103 17.03242958 716.00905416 15.1987915 716.00463867 C9.3696595 715.9932747 3.5405653 715.99470925 -2.28857422 715.99780273 C-3.28209522 715.99792233 -4.27561623 715.99804192 -5.29924393 715.99816513 C-35.23507757 716.00273076 -65.11195118 716.19467565 -95.00195312 718.02709961 Z " fill="#9B3187" transform="translate(1239.60107421875,348.814697265625)"/>
<path d="M0 0 C1.99058047 -0.00702052 3.98116071 -0.01410735 5.97174072 -0.02125549 C12.30017417 -0.04066433 18.62857104 -0.04568962 24.95703125 -0.046875 C26.03472401 -0.04731686 27.11241676 -0.04775871 28.22276688 -0.04821396 C59.2385494 -0.05488587 90.13269935 0.05742697 121.03942871 2.94989014 C123.92683121 3.2177156 126.81525203 3.47142948 129.70410156 3.72314453 C188.40763963 8.88692632 246.47178069 18.45946106 303.76953125 32.203125 C304.56965637 32.3949939 305.36978149 32.58686279 306.19415283 32.7845459 C382.29243135 51.10781314 456.03026312 77.78487979 526.76953125 111.203125 C527.77000488 111.67250488 528.77047852 112.14188477 529.80126953 112.62548828 C554.65517775 124.29862715 579.10120297 136.79364897 602.87695312 150.53613281 C605.9743709 152.32117405 609.08217325 154.08718879 612.19140625 155.8515625 C625.33640378 163.33556154 638.2134625 171.13187271 650.90673828 179.35693359 C653.99562134 181.34892862 657.0978838 183.31876561 660.203125 185.28515625 C670.64279847 191.90413247 680.96201868 198.57334414 690.93457031 205.87792969 C693.89206392 208.01380985 696.89303912 210.08667914 699.88891602 212.16821289 C714.95494927 222.63952852 729.74422639 233.44357355 744.09570312 244.87646484 C745.81790452 246.24146519 747.54987949 247.59307516 749.28515625 248.94140625 C756.22431167 254.3390574 763.00621274 259.8810591 769.69140625 265.58984375 C772.49660445 267.98194769 775.34416282 270.31768351 778.20703125 272.640625 C788.1135567 280.71847497 797.73531816 289.08574689 807.1171875 297.765625 C809.24443659 299.72056378 811.39225377 301.63194545 813.58203125 303.515625 C822.66201128 311.39887126 831.38238501 319.72245349 839.8203125 328.28515625 C841.61998261 330.05597394 843.46824862 331.69756167 845.39453125 333.328125 C854.18557003 340.8809893 862.50008005 349.32540381 869.96875 358.18359375 C872.45579198 360.97274929 875.11188255 363.57742309 877.76953125 366.203125 C881.60978098 370.00178569 885.30353759 373.83954199 888.8046875 377.95703125 C890.95977827 380.4206042 893.18836439 382.80334253 895.42895508 385.18896484 C900.73472051 390.83827991 905.81126505 396.57273434 910.66015625 402.625 C912.78938271 405.2273879 915.00402482 407.71888002 917.26953125 410.203125 C921.05994625 414.3719291 924.65732546 418.65797498 928.19921875 423.0390625 C930.12133586 425.4159731 932.06918394 427.76988443 934.02734375 430.1171875 C941.43285443 439.00895376 948.51840852 448.06922645 955.40087891 457.37011719 C957.46576763 460.13558 959.58740693 462.85435655 961.70703125 465.578125 C1021.33771078 542.62509196 1070.55821947 629.88172152 1128.76953125 775.203125 C1129.02520874 775.92290527 1129.28088623 776.64268555 1129.54431152 777.38427734 C1162.22395507 869.55638047 1183.55886547 965.7360118 1193.01953125 1076.515625 C1193.14429337 1078.06943375 1193.14429337 1078.06943375 1193.27157593 1079.65463257 C1193.51051191 1082.66651117 1193.74311805 1085.67879785 1193.97265625 1088.69140625 C1194.07230431 1089.9692247 1194.07230431 1089.9692247 1194.17396545 1091.27285767 C1195.43828531 1108.34907339 1195.9350478 1125.41250811 1195.97265625 1142.53125 C1195.97967835 1144.52040122 1195.98676517 1146.50955222 1195.99391174 1148.498703 C1196.01330306 1154.81684699 1196.01834554 1161.13495425 1196.01953125 1167.453125 C1196.01997311 1168.52942799 1196.02041496 1169.60573097 1196.02087021 1170.7146492 C1196.02754477 1201.71100916 1195.91341771 1232.58565023 1193.02276611 1263.47302246 C1192.75494065 1266.36042496 1192.50122677 1269.24884578 1192.24951172 1272.13769531 C1187.08572993 1330.84123338 1177.51319519 1388.90537444 1163.76953125 1446.203125 C1163.57766235 1447.00325012 1163.38579346 1447.80337524 1163.18811035 1448.62774658 C1146.35800488 1518.5247817 1122.77075695 1586.85861766 1092.70770264 1652.16394043 C1091.77778563 1654.18518351 1090.85158189 1656.20809068 1089.92626953 1658.23144531 C1078.42478728 1683.35403933 1066.2084663 1708.05627264 1052.76953125 1732.203125 C1051.62235127 1734.2773191 1050.47521732 1736.35153867 1049.328125 1738.42578125 C1038.93717854 1757.15639626 1027.99161567 1775.48430458 1016.46777344 1793.53808594 C1014.5750214 1796.50836788 1012.69191043 1799.48466485 1010.80859375 1802.4609375 C1004.14966451 1812.95859899 997.44088353 1823.33885725 990.09472656 1833.36816406 C987.9588464 1836.32565767 985.88597711 1839.32663287 983.80444336 1842.32250977 C973.33312773 1857.38854302 962.5290827 1872.17782014 951.09619141 1886.52929688 C949.73119106 1888.25149827 948.37958109 1889.98347324 947.03125 1891.71875 C941.63359885 1898.65790542 936.09159715 1905.43980649 930.3828125 1912.125 C927.99070856 1914.9301982 925.65497274 1917.77775657 923.33203125 1920.640625 C915.25418128 1930.54715045 906.88690936 1940.16891191 898.20703125 1949.55078125 C896.25209247 1951.67803034 894.3407108 1953.82584752 892.45703125 1956.015625 C884.57378499 1965.09560503 876.25020276 1973.81597876 867.6875 1982.25390625 C865.91668231 1984.05357636 864.27509458 1985.90184237 862.64453125 1987.828125 C855.09166695 1996.61916378 846.64725244 2004.9336738 837.7890625 2012.40234375 C834.99990696 2014.88938573 832.39523316 2017.5454763 829.76953125 2020.203125 C825.97087056 2024.04337473 822.13311426 2027.73713134 818.015625 2031.23828125 C815.55205205 2033.39337202 813.16931372 2035.62195814 810.78369141 2037.86254883 C805.13437634 2043.16831426 799.39992191 2048.2448588 793.34765625 2053.09375 C790.74526835 2055.22297646 788.25377623 2057.43761857 785.76953125 2059.703125 C781.60072715 2063.49354 777.31468127 2067.09091921 772.93359375 2070.6328125 C770.55668315 2072.55492961 768.20277182 2074.50277769 765.85546875 2076.4609375 C756.96370249 2083.86644818 747.9034298 2090.95200227 738.60253906 2097.83447266 C735.83707625 2099.89936138 733.1182997 2102.02100068 730.39453125 2104.140625 C653.34756429 2163.77130453 566.09093473 2212.99181322 420.76953125 2271.203125 C420.04975098 2271.45880249 419.3299707 2271.71447998 418.58837891 2271.97790527 C326.37931823 2304.67065213 230.0474018 2326.16769136 106.40234375 2336.40625 C105.08396515 2336.50589806 105.08396515 2336.50589806 103.73895264 2336.6075592 C87.00616812 2337.8183467 70.31310659 2338.369504 53.5390625 2338.40625 C51.54848203 2338.41327052 49.55790179 2338.42035735 47.56732178 2338.42750549 C41.23888833 2338.44691433 34.91049146 2338.45193962 28.58203125 2338.453125 C27.50433849 2338.45356686 26.42664574 2338.45400871 25.31629562 2338.45446396 C-5.6994869 2338.46113587 -36.59363685 2338.34882303 -67.50036621 2335.45635986 C-70.38776871 2335.1885344 -73.27618953 2334.93482052 -76.16503906 2334.68310547 C-134.86857713 2329.51932368 -192.93271819 2319.94678894 -250.23046875 2306.203125 C-251.03059387 2306.0112561 -251.83071899 2305.81938721 -252.65509033 2305.6217041 C-322.55212545 2288.79159863 -390.88596141 2265.2043507 -456.19128418 2235.14129639 C-458.21252726 2234.21137938 -460.23543443 2233.28517564 -462.25878906 2232.35986328 C-487.38138308 2220.85838103 -512.08361639 2208.64206005 -536.23046875 2195.203125 C-538.30466285 2194.05594502 -540.37888242 2192.90881107 -542.453125 2191.76171875 C-561.18374001 2181.37077229 -579.51164833 2170.42520942 -597.56542969 2158.90136719 C-600.53571163 2157.00861515 -603.5120086 2155.12550418 -606.48828125 2153.2421875 C-616.98594274 2146.58325826 -627.366201 2139.87447728 -637.39550781 2132.52832031 C-640.35300142 2130.39244015 -643.35397662 2128.31957086 -646.34985352 2126.23803711 C-661.41588677 2115.76672148 -676.20516389 2104.96267645 -690.55664062 2093.52978516 C-692.27884202 2092.16478481 -694.01081699 2090.81317484 -695.74609375 2089.46484375 C-702.68524917 2084.0671926 -709.46715024 2078.5251909 -716.15234375 2072.81640625 C-718.95754195 2070.42430231 -721.80510032 2068.08856649 -724.66796875 2065.765625 C-734.5744942 2057.68777503 -744.19625566 2049.32050311 -753.578125 2040.640625 C-755.70537409 2038.68568622 -757.85319127 2036.77430455 -760.04296875 2034.890625 C-769.12294878 2027.00737874 -777.84332251 2018.68379651 -786.28125 2010.12109375 C-788.08092011 2008.35027606 -789.92918612 2006.70868833 -791.85546875 2005.078125 C-800.64650753 1997.5252607 -808.96101755 1989.08084619 -816.4296875 1980.22265625 C-818.91672948 1977.43350071 -821.57282005 1974.82882691 -824.23046875 1972.203125 C-828.07071848 1968.40446431 -831.76447509 1964.56670801 -835.265625 1960.44921875 C-837.42071577 1957.9856458 -839.64930189 1955.60290747 -841.88989258 1953.21728516 C-847.19565801 1947.56797009 -852.27220255 1941.83351566 -857.12109375 1935.78125 C-859.25032021 1933.1788621 -861.46496232 1930.68736998 -863.73046875 1928.203125 C-867.52088375 1924.0343209 -871.11826296 1919.74827502 -874.66015625 1915.3671875 C-876.58227336 1912.9902769 -878.53012144 1910.63636557 -880.48828125 1908.2890625 C-887.89379193 1899.39729624 -894.97934602 1890.33702355 -901.86181641 1881.03613281 C-903.92670513 1878.27067 -906.04834443 1875.55189345 -908.16796875 1872.828125 C-950.20489067 1818.51351111 -985.66110439 1759.09211012 -1017.23046875 1698.203125 C-1018.0810083 1696.5641626 -1018.0810083 1696.5641626 -1018.94873047 1694.89208984 C-1060.60991628 1614.16620303 -1090.53439677 1527.50938285 -1139.48046875 1261.890625 C-1139.56364349 1260.8547525 -1139.64681824 1259.81888 -1139.73251343 1258.75161743 C-1139.97144941 1255.73973883 -1140.20405555 1252.72745215 -1140.43359375 1249.71484375 C-1140.50002579 1248.86296478 -1140.56645782 1248.01108582 -1140.63490295 1247.13339233 C-1141.89922281 1230.05717661 -1142.3959853 1212.99374189 -1142.43359375 1195.875 C-1142.44061585 1193.88584878 -1142.44770267 1191.89669778 -1142.45484924 1189.907547 C-1142.47424056 1183.58940301 -1142.47928304 1177.27129575 -1142.48046875 1170.953125 C-1142.48091061 1169.87682201 -1142.48135246 1168.80051903 -1142.48180771 1167.6916008 C-1142.48848227 1136.69524084 -1142.37435521 1105.82059977 -1139.48370361 1074.93322754 C-1139.21587815 1072.04582504 -1138.96216427 1069.15740422 -1138.71044922 1066.26855469 C-1133.54666743 1007.56501662 -1123.97413269 949.50087556 -1110.23046875 892.203125 C-1110.03859985 891.40299988 -1109.84673096 890.60287476 -1109.64904785 889.77850342 C-1092.81894238 819.8814683 -1069.23169445 751.54763234 -1039.16864014 686.24230957 C-1038.23872313 684.22106649 -1037.31251939 682.19815932 -1036.38720703 680.17480469 C-1024.88572478 655.05221067 -1012.6694038 630.34997736 -999.23046875 606.203125 C-998.08328877 604.1289309 -996.93615482 602.05471133 -995.7890625 599.98046875 C-985.39811604 581.24985374 -974.45255317 562.92194542 -962.92871094 544.86816406 C-961.0359589 541.89788212 -959.15284793 538.92158515 -957.26953125 535.9453125 C-950.61060201 525.44765101 -943.90182103 515.06739275 -936.55566406 505.03808594 C-934.4197839 502.08059233 -932.34691461 499.07961713 -930.26538086 496.08374023 C-919.79406523 481.01770698 -908.9900202 466.22842986 -897.55712891 451.87695312 C-896.19212856 450.15475173 -894.84051859 448.42277676 -893.4921875 446.6875 C-888.09453635 439.74834458 -882.55253465 432.96644351 -876.84375 426.28125 C-874.45164606 423.4760518 -872.11591024 420.62849343 -869.79296875 417.765625 C-861.71511878 407.85909955 -853.34784686 398.23733809 -844.66796875 388.85546875 C-842.71302997 386.72821966 -840.8016483 384.58040248 -838.91796875 382.390625 C-831.03472249 373.31064497 -822.71114026 364.59027124 -814.1484375 356.15234375 C-812.37761981 354.35267364 -810.73603208 352.50440763 -809.10546875 350.578125 C-801.55260445 341.78708622 -793.10818994 333.4725762 -784.25 326.00390625 C-781.46084446 323.51686427 -778.85617066 320.8607737 -776.23046875 318.203125 C-772.43180806 314.36287527 -768.59405176 310.66911866 -764.4765625 307.16796875 C-762.01298955 305.01287798 -759.63025122 302.78429186 -757.24462891 300.54370117 C-751.59531384 295.23793574 -745.86085941 290.1613912 -739.80859375 285.3125 C-737.20620585 283.18327354 -734.71471373 280.96863143 -732.23046875 278.703125 C-727.05847794 273.99685848 -721.66699471 269.59828824 -716.23046875 265.203125 C-714.45918302 263.74534117 -712.68835241 262.2870042 -710.91796875 260.828125 C-650.69290127 211.59178978 -585.04610266 168.00909271 -515.80029297 132.53076172 C-513.41264872 131.29724382 -511.03956395 130.0408468 -508.671875 128.76953125 C-435.32476921 89.40367388 -355.82709448 59.91616727 -52.86328125 2 C-51.54490265 1.90035194 -51.54490265 1.90035194 -50.19989014 1.7986908 C-33.46710562 0.5879033 -16.77404409 0.036746 0 0 Z M-323.23046875 106.203125 C-323.93713684 106.43388733 -324.64380493 106.66464966 -325.37188721 106.90240479 C-361.42301516 118.69725992 -396.68245688 132.55384443 -431.23046875 148.203125 C-432.37596191 148.71875 -433.52145508 149.234375 -434.70166016 149.765625 C-463.00034659 162.54015799 -491.02536813 176.19160438 -517.85595703 191.83447266 C-520.80520198 193.53439731 -523.7899184 195.16290123 -526.78051758 196.78857422 C-546.11192459 207.32093418 -564.88107827 219.05211494 -583.23046875 231.203125 C-584.63670752 232.12762126 -586.04295784 233.05209992 -587.44921875 233.9765625 C-610.99612628 249.51399562 -633.98956914 265.84573534 -656.23046875 283.203125 C-657.08632568 283.86973145 -657.08632568 283.86973145 -657.95947266 284.54980469 C-668.61894639 292.85762469 -679.09879769 301.35961166 -689.39257812 310.1171875 C-692.8208762 313.02900413 -696.2902119 315.88075977 -699.79296875 318.703125 C-704.86654368 322.83002706 -709.66788017 327.20415058 -714.4609375 331.6484375 C-716.68965268 333.70426222 -718.93814794 335.71929457 -721.23046875 337.703125 C-726.09337604 341.92827395 -730.83153696 346.28791422 -735.56005859 350.66210938 C-737.19067542 352.16641417 -738.8294423 353.66142864 -740.46875 355.15625 C-750.33466818 364.22136763 -759.81236818 373.67665441 -769.29296875 383.140625 C-769.97726959 383.82233765 -770.66157043 384.50405029 -771.36660767 385.2064209 C-780.91682735 394.6500248 -780.91682735 394.6500248 -789.88256836 404.64086914 C-791.41707861 406.41941127 -793.05377746 408.05872446 -794.73046875 409.703125 C-797.74460457 412.67047823 -800.52964208 415.77657792 -803.2890625 418.98046875 C-805.51850936 421.53289383 -807.81048257 424.02200014 -810.10546875 426.515625 C-814.24850097 431.05353018 -818.15427289 435.73456535 -822.01171875 440.515625 C-824.20322143 443.1701212 -826.47294558 445.72313385 -828.79296875 448.265625 C-832.34367883 452.17079496 -835.68440571 456.18233066 -838.94921875 460.328125 C-840.68162707 462.51143411 -842.43013807 464.67485003 -844.19921875 466.828125 C-851.28380739 475.45647476 -858.10426228 484.23502232 -864.74658203 493.20751953 C-866.22977216 495.2021882 -867.72572568 497.18655157 -869.2265625 499.16796875 C-875.84830424 507.91616537 -882.26351334 516.78847888 -888.54101562 525.78662109 C-890.39397006 528.43698858 -892.25746591 531.07978422 -894.12109375 533.72265625 C-901.95199102 544.86039048 -909.50589426 556.10674877 -916.66601562 567.68652344 C-918.35441987 570.40251453 -920.06416093 573.10426237 -921.77734375 575.8046875 C-935.87515568 598.07963625 -948.83114671 620.94547353 -961.23046875 644.203125 C-961.65602051 644.99638184 -962.08157227 645.78963867 -962.52001953 646.60693359 C-965.4734362 652.11356531 -968.36851365 657.64843828 -971.23046875 663.203125 C-971.76865234 664.24549316 -972.30683594 665.28786133 -972.86132812 666.36181641 C-983.4506635 686.96165834 -993.0914141 707.92216673 -1002.23046875 729.203125 C-1002.5346875 729.91104187 -1002.83890625 730.61895874 -1003.15234375 731.34832764 C-1024.25704312 780.56550297 -1041.66871118 831.40208288 -1055.23046875 883.203125 C-1055.4225592 883.93343933 -1055.61464966 884.66375366 -1055.81256104 885.41619873 C-1079.39004961 975.13870017 -1090.6865209 1066.90255085 -1036.23046875 1519.203125 C-1035.88432526 1520.26312714 -1035.88432526 1520.26312714 -1035.53118896 1521.34454346 C-1023.73633383 1557.39567141 -1009.87974932 1592.65511313 -994.23046875 1627.203125 C-993.71484375 1628.34861816 -993.19921875 1629.49411133 -992.66796875 1630.67431641 C-979.89343576 1658.97300284 -966.24198937 1686.99802438 -950.59912109 1713.82861328 C-948.89919644 1716.77785823 -947.27069252 1719.76257465 -945.64501953 1722.75317383 C-935.11265957 1742.08458084 -923.38147881 1760.85373452 -911.23046875 1779.203125 C-910.30597249 1780.60936377 -909.38149383 1782.01561409 -908.45703125 1783.421875 C-892.91959813 1806.96878253 -876.58785841 1829.96222539 -859.23046875 1852.203125 C-858.78606445 1852.77369629 -858.34166016 1853.34426758 -857.88378906 1853.93212891 C-852.46842181 1860.88039753 -846.99642109 1867.77475175 -841.39453125 1874.57421875 C-839.96533651 1876.31040658 -838.54329599 1878.0525114 -837.12890625 1879.80078125 C-828.47566613 1890.4835995 -819.43115307 1900.83429936 -810.19921875 1911.01953125 C-808.39512091 1913.02050485 -806.62039858 1915.0426281 -804.85546875 1917.078125 C-800.58168002 1921.97639428 -796.18553327 1926.76111116 -791.77148438 1931.53271484 C-790.26717958 1933.16333167 -788.77216511 1934.80209855 -787.27734375 1936.44140625 C-778.21222612 1946.30732443 -768.75693934 1955.78502443 -759.29296875 1965.265625 C-758.6112561 1965.94992584 -757.92954346 1966.63422668 -757.22717285 1967.33926392 C-747.78356895 1976.8894836 -747.78356895 1976.8894836 -737.79272461 1985.85522461 C-736.01418248 1987.38973486 -734.37486929 1989.02643371 -732.73046875 1990.703125 C-729.76311552 1993.71726082 -726.65701583 1996.50229833 -723.453125 1999.26171875 C-720.90069992 2001.49116561 -718.41159361 2003.78313882 -715.91796875 2006.078125 C-711.38006357 2010.22115722 -706.6990284 2014.12692914 -701.91796875 2017.984375 C-699.26347255 2020.17587768 -696.7104599 2022.44560183 -694.16796875 2024.765625 C-690.26279879 2028.31633508 -686.25126309 2031.65706196 -682.10546875 2034.921875 C-679.92215964 2036.65428332 -677.75874372 2038.40279432 -675.60546875 2040.171875 C-666.97711899 2047.25646364 -658.19857143 2054.07691853 -649.22607422 2060.71923828 C-647.23140555 2062.20242841 -645.24704218 2063.69838193 -643.265625 2065.19921875 C-634.51742838 2071.82096049 -625.64511487 2078.23616959 -616.64697266 2084.51367188 C-613.99660517 2086.36662631 -611.35380953 2088.23012216 -608.7109375 2090.09375 C-597.53316696 2097.95269389 -586.25006889 2105.54755353 -574.62255859 2112.72460938 C-572.12838908 2114.26621894 -569.64187402 2115.8196542 -567.15625 2117.375 C-549.58032725 2128.3490419 -531.80104875 2138.96971127 -513.61230469 2148.89892578 C-511.10719698 2150.27062375 -508.61030392 2151.65661357 -506.11328125 2153.04296875 C-475.93066694 2169.70366472 -444.922871 2184.65197731 -413.23046875 2198.203125 C-412.53109192 2198.50307373 -411.83171509 2198.80302246 -411.11114502 2199.11206055 C-328.12089242 2234.67274912 -240.63254069 2259.97340407 -59.16796875 2284.890625 C-58.02471634 2284.98216858 -58.02471634 2284.98216858 -56.85836792 2285.07556152 C36.01709886 2292.41857431 130.00280853 2287.18773796 376.76953125 2232.203125 C377.47192932 2231.97343018 378.17432739 2231.74373535 378.89801025 2231.50708008 C414.95240093 2219.70509211 450.21636521 2205.85474026 484.76953125 2190.203125 C485.91502441 2189.6875 487.06051758 2189.171875 488.24072266 2188.640625 C516.53940909 2175.86609201 544.56443063 2162.21464562 571.39501953 2146.57177734 C574.34426448 2144.87185269 577.3289809 2143.24334877 580.31958008 2141.61767578 C599.65098709 2131.08531582 618.42014077 2119.35413506 636.76953125 2107.203125 C638.17577002 2106.27862874 639.58202034 2105.35415008 640.98828125 2104.4296875 C664.53518878 2088.89225438 687.52863164 2072.56051466 709.76953125 2055.203125 C710.34010254 2054.7587207 710.91067383 2054.31431641 711.49853516 2053.85644531 C718.4453667 2048.4421981 725.33780943 2042.97077854 732.13671875 2037.37109375 C733.88682651 2035.92998127 735.64202737 2034.49503097 737.40234375 2033.06640625 C747.97385949 2024.4828286 758.29204128 2015.63308305 768.328125 2006.4296875 C770.43107958 2004.51179293 772.55622281 2002.62936455 774.70703125 2000.765625 C779.58757463 1996.51610137 784.3490588 1992.13826231 789.09912109 1987.74414062 C790.72973792 1986.23983583 792.3685048 1984.74482136 794.0078125 1983.25 C803.87373068 1974.18488237 813.35143068 1964.72959559 822.83203125 1955.265625 C823.85848251 1954.24305603 823.85848251 1954.24305603 824.90567017 1953.1998291 C834.45588985 1943.7562252 834.45588985 1943.7562252 843.42163086 1933.76538086 C844.95614111 1931.98683873 846.59283996 1930.34752554 848.26953125 1928.703125 C851.28366707 1925.73577177 854.06870458 1922.62967208 856.828125 1919.42578125 C859.05757186 1916.87335617 861.34954507 1914.38424986 863.64453125 1911.890625 C867.78756347 1907.35271982 871.69333539 1902.67168465 875.55078125 1897.890625 C877.74228393 1895.2361288 880.01200808 1892.68311615 882.33203125 1890.140625 C885.88274133 1886.23545504 889.22346821 1882.22391934 892.48828125 1878.078125 C894.22068957 1875.89481589 895.96920057 1873.73139997 897.73828125 1871.578125 C904.82286989 1862.94977524 911.64332478 1854.17122768 918.28564453 1845.19873047 C919.76883466 1843.2040618 921.26478818 1841.21969843 922.765625 1839.23828125 C929.38736674 1830.49008463 935.80257584 1821.61777112 942.08007812 1812.61962891 C943.93303256 1809.96926142 945.79652841 1807.32646578 947.66015625 1804.68359375 C955.51910014 1793.50582321 963.11395978 1782.22272514 970.29101562 1770.59521484 C971.83262519 1768.10104533 973.38606045 1765.61453027 974.94140625 1763.12890625 C985.91544815 1745.5529835 996.53611752 1727.773705 1006.46533203 1709.58496094 C1007.83703 1707.07985323 1009.22301982 1704.58296017 1010.609375 1702.0859375 C1027.27007097 1671.90332319 1042.21838356 1640.89552725 1055.76953125 1609.203125 C1056.06947998 1608.50374817 1056.36942871 1607.80437134 1056.6784668 1607.08380127 C1077.77505931 1557.84933444 1095.20426973 1507.01755095 1108.76953125 1455.203125 C1108.9616217 1454.47281067 1109.15371216 1453.74249634 1109.35162354 1452.99005127 C1132.92911211 1363.26754983 1144.2255834 1271.50369915 1089.76953125 819.203125 C1089.53876892 818.49645691 1089.30800659 817.78978882 1089.07025146 817.06170654 C1077.27539633 781.01057859 1063.41881182 745.75113687 1047.76953125 711.203125 C1047.25390625 710.05763184 1046.73828125 708.91213867 1046.20703125 707.73193359 C1033.43249826 679.43324716 1019.78105187 651.40822562 1004.13818359 624.57763672 C1002.43825894 621.62839177 1000.80975502 618.64367535 999.18408203 615.65307617 C988.65175539 596.32173032 976.9208908 577.55222039 964.76953125 559.203125 C963.82161291 557.76171985 962.8736963 556.32031356 961.92578125 554.87890625 C946.41500682 531.37882341 930.03957582 508.44171236 912.76953125 486.203125 C912.27678711 485.56858398 911.78404297 484.93404297 911.27636719 484.28027344 C903.02758467 473.67945071 894.56038366 463.27488802 885.85766602 453.04321289 C882.92669464 449.59172641 880.05238374 446.10094237 877.20703125 442.578125 C873.33023356 437.81361692 869.25481593 433.2666861 865.09765625 428.74609375 C863.16258863 426.63245446 861.26744828 424.49652652 859.39453125 422.328125 C854.847424 417.10423899 850.12538544 412.04181391 845.40869141 406.97167969 C843.84788114 405.28765979 842.29802566 403.5942042 840.75 401.8984375 C831.70494804 392.05630671 822.27407515 382.5992524 812.83203125 373.140625 C812.15022797 372.45623352 811.46842468 371.77184204 810.76596069 371.06671143 C801.32249025 361.51663321 801.32249025 361.51663321 791.33178711 352.55102539 C789.55324498 351.01651514 787.91393179 349.37981629 786.26953125 347.703125 C783.30217802 344.68898918 780.19607833 341.90395167 776.9921875 339.14453125 C774.43976242 336.91508439 771.95065611 334.62311118 769.45703125 332.328125 C765.01702341 328.27791208 760.45018844 324.44778378 755.7734375 320.67578125 C752.2728647 317.79429545 748.86679078 314.81586085 745.45703125 311.828125 C740.12595343 307.17109925 734.69533982 302.69503923 729.09912109 298.36108398 C725.36982318 295.47131996 721.70140645 292.52021441 718.06079102 289.51953125 C708.56608864 281.70353443 698.72423498 274.41942055 688.76953125 267.203125 C687.22119056 266.07444316 685.67301119 264.94553997 684.125 263.81640625 C674.4524956 256.77781194 664.67868217 249.90427742 654.76953125 243.203125 C654.07956055 242.73583984 653.38958984 242.26855469 652.67871094 241.78710938 C624.95452436 223.05078209 596.43022636 205.33798033 566.99023438 189.41064453 C564.54934413 188.08339704 562.12044319 186.73553059 559.69140625 185.38671875 C529.5048541 168.71490428 498.48857938 153.71792826 466.76953125 140.203125 C465.99242798 139.87161438 465.21532471 139.54010376 464.41467285 139.19854736 C415.17995703 118.23399821 364.53193564 100.79057786 312.76953125 87.203125 C312.0360144 87.00996704 311.30249756 86.81680908 310.54675293 86.61779785 C220.54136921 62.95605479 128.51499186 51.72655891 -323.23046875 106.203125 Z " fill="#9E3186" transform="translate(1223.23046875,80.796875)"/>
</svg>
