<?xml version="1.0" encoding="UTF-8"?>
<svg version="1.1" xmlns="http://www.w3.org/2000/svg" width="500" height="500">
<path d="M0 0 C3.37316783 3.37316783 3.19864547 7.12391073 3.3125 11.75 C3.17326134 21.33426139 -0.9638445 26.64580868 -7.40625 33.49609375 C-25.33841659 50.80711601 -49.80350274 60.46240783 -72 71 C-46.35704462 64.23865318 -12.38373725 47.68307011 1.921875 24.11328125 C3.60174906 20.82048463 4.85030073 17.51296998 6 14 C9.62195194 19.43292791 10.50428328 25.63508703 9.5 32.0625 C8.1768716 37.5001309 5.42366178 41.64120712 2 46 C1.24589844 46.97066406 0.49179687 47.94132812 -0.28515625 48.94140625 C-3.04410995 52.21544027 -6.16025234 54.695117 -9.625 57.1875 C-10.26308594 57.65091797 -10.90117187 58.11433594 -11.55859375 58.59179688 C-21.65119012 65.76082087 -32.50572384 72.35337772 -44 77 C-43.34 77.33 -42.68 77.66 -42 78 C-42 78.66 -42 79.32 -42 80 C-42.639375 80.2475 -43.27875 80.495 -43.9375 80.75 C-46.49019039 81.96621634 -46.49019039 81.96621634 -47 86 C-47 88.97 -47 91.94 -47 95 C-38.09 98.96 -38.09 98.96 -29 103 C-28.979375 100.091875 -28.95875 97.18375 -28.9375 94.1875 C-28.928396 93.27508545 -28.91929199 92.3626709 -28.90991211 91.42260742 C-28.90741455 90.69920166 -28.90491699 89.9757959 -28.90234375 89.23046875 C-28.89448853 88.12288208 -28.89448853 88.12288208 -28.88647461 86.99291992 C-28.92476787 84.78942591 -28.92476787 84.78942591 -30 82 C-32.00016466 80.79117904 -32.00016466 80.79117904 -34 80 C-34 79.34 -34 78.68 -34 78 C-29.05 78 -24.1 78 -19 78 C-19.495 79.485 -19.495 79.485 -20 81 C-20.99 81 -21.98 81 -23 81 C-23.33 89.25 -23.66 97.5 -24 106 C-21.35569723 107.05772111 -18.70185122 108.09938293 -16 109 C-15.505 107.02 -15.505 107.02 -15 105 C-14.01 105 -13.02 105 -12 105 C-11.566875 105.94875 -11.13375 106.8975 -10.6875 107.875 C-9.20697799 111.20041937 -9.20697799 111.20041937 -6 113 C-3.78417411 113.31560324 -3.78417411 113.31560324 -1.4375 113.25 C-0.65246094 113.25515625 0.13257813 113.2603125 0.94140625 113.265625 C3.22290968 113.18429262 3.22290968 113.18429262 5 111 C5.58402133 108.58582128 5.58402133 108.58582128 5 106 C1.49860299 102.26517653 -3.1129962 100.37011574 -7.6953125 98.24609375 C-9.96729357 97.01768364 -11.40677423 96.0214052 -13 94 C-14.04131937 89.46282273 -14.37285519 87.0978514 -12.875 82.6875 C-10.7385818 79.62530059 -9.46620794 78.38648318 -6 77 C-0.84129147 76.66718009 3.91467137 77.15244523 9 78 C9.495 83.445 9.495 83.445 10 89 C6 88 6 88 4.3125 85.5 C3.879375 84.675 3.44625 83.85 3 83 C1.99163938 81.76732652 1.99163938 81.76732652 -0.06640625 81.90234375 C-0.89011719 81.91394531 -1.71382813 81.92554688 -2.5625 81.9375 C-3.38878906 81.94652344 -4.21507812 81.95554687 -5.06640625 81.96484375 C-5.70449219 81.97644531 -6.34257812 81.98804688 -7 82 C-7.67012422 84.7859186 -7.67012422 84.7859186 -7 88 C-4.60543854 90.1326563 -1.8202617 91.50128707 1 93 C2.44529617 93.86206161 3.88320403 94.73666206 5.3125 95.625 C5.94800781 96.00914062 6.58351563 96.39328125 7.23828125 96.7890625 C10.53769894 99.05695493 11.83027594 100.3574732 12.875 104.3125 C13.01924006 108.56758189 12.32570766 110.4713401 10 114 C7.03661335 116.86120091 3.87293303 117.75305294 0 119 C0.6290625 119.46148437 1.258125 119.92296875 1.90625 120.3984375 C14.44534193 129.95382984 21.72703052 140.32212154 24.59375 155.82421875 C25.16704245 160.36169818 24.8886261 164.71814781 24.375 169.25 C24.29362793 169.97695068 24.21225586 170.70390137 24.12841797 171.45288086 C23.70321375 174.45167087 23.32837367 176.58912852 21.4140625 178.984375 C20.94742188 179.31953125 20.48078125 179.6546875 20 180 C18 178 18 178 17.6875 174.1875 C16.34640216 160.07187692 8.49788995 149.426449 -1.8828125 140.38671875 C-8.52005711 135.30481843 -15.75166608 131.14234507 -23 127 C-23.73138184 126.58202148 -24.46276367 126.16404297 -25.21630859 125.73339844 C-27.26080203 124.57698329 -29.31405163 123.43928857 -31.375 122.3125 C-31.98690186 121.973396 -32.59880371 121.63429199 -33.22924805 121.28491211 C-36.51868087 119.53422708 -38.16297013 119 -42 119 C-41.4831665 119.24532471 -40.96633301 119.49064941 -40.43383789 119.7434082 C6.56160394 142.21633065 6.56160394 142.21633065 15.2734375 165.73828125 C18.70216781 176.41158689 16.92828478 187.3748933 14 198 C13.34 198.66 12.68 199.32 12 200 C11.82984375 199.47792969 11.6596875 198.95585937 11.484375 198.41796875 C10.9649205 196.84026385 10.43815461 195.2649574 9.90625 193.69140625 C9.30733227 191.91272387 8.72367877 190.12882057 8.15625 188.33984375 C-0.29809757 163.01324219 -22.83941653 150.11944931 -44.62158203 137.40429688 C-46.83871142 136.09523013 -49.02928763 134.75155177 -51.21484375 133.390625 C-52.45557549 132.63516422 -53.69645025 131.87993825 -54.9375 131.125 C-55.99839844 130.46757812 -57.05929688 129.81015625 -58.15234375 129.1328125 C-60.93781239 127.69030604 -60.93781239 127.69030604 -63.66796875 128.75390625 C-64.43753906 129.16511719 -65.20710938 129.57632813 -66 130 C-73.04558694 131.69615982 -76.94612576 129.64909209 -83.125 126.3125 C-86.08720249 124.96019017 -87.79457914 124.55480266 -91 125 C-91.99 125.99 -91.99 125.99 -93 127 C-94.32 127 -95.64 127 -97 127 C-96.65120368 123.74456771 -95.97866739 122.98126893 -93.4375 120.75 C-92.633125 120.1725 -91.82875 119.595 -91 119 C-92.19625 118.484375 -93.3925 117.96875 -94.625 117.4375 C-100.24489844 114.61758642 -103.7209579 110.73249903 -106.375 105.0625 C-107.7562556 98.29434754 -107.62783741 92.01047651 -104 86 C-100.39148158 82.03139587 -97.23503164 79.25505078 -92 78 C-91.505 77.01 -91.505 77.01 -91 76 C-90.34 76.33 -89.68 76.66 -89 77 C-89.061875 75.845 -89.12375 74.69 -89.1875 73.5 C-89.19595513 68.75667103 -87.96280104 65.30306383 -86 61 C-85.01 60.505 -85.01 60.505 -84 60 C-83.85304687 60.6290625 -83.70609375 61.258125 -83.5546875 61.90625 C-80.20234172 74.69910974 -72.42756567 80.98474839 -61.2890625 87.61328125 C-59.20889073 88.7780462 -57.12057736 89.91091336 -55 91 C-55.495 87.04 -55.495 87.04 -56 83 C-56.87527344 83.39316406 -57.75054687 83.78632813 -58.65234375 84.19140625 C-62 85 -62 85 -64.81640625 83.83984375 C-79.01503193 74.00381145 -79.01503193 74.00381145 -82 66 C-82.43676733 63.33610694 -82.72148166 60.68770201 -83 58 C-74.63058401 53.75916328 -66.22245208 49.61870033 -57.74291992 45.60180664 C-43.01320978 38.61010127 -28.92099079 31.38096673 -15.671875 21.84765625 C-13 20 -13 20 -10.69921875 18.85546875 C-8.37596794 17.68583214 -8.1044916 16.33892339 -7 14 C-5.7625 12.63875 -5.7625 12.63875 -4.5 11.25 C-1.49078634 7.78807278 -0.84527908 4.45692605 0 0 Z M-89 81 C-88.18828198 87.89960317 -83.51538422 93.00931218 -79 98 C-78.34 98 -77.68 98 -77 98 C-77 98.66 -77 99.32 -77 100 C-74.18490007 102.2773501 -74.18490007 102.2773501 -71 102 C-71 101.34 -71 100.68 -71 100 C-74.05558423 96.97482091 -74.05558423 96.97482091 -78 96 C-78 95.34 -78 94.68 -78 94 C-78.66 94 -79.32 94 -80 94 C-80.41378906 93.15695313 -80.41378906 93.15695313 -80.8359375 92.296875 C-82.04368028 89.91381206 -83.32176809 87.5820992 -84.625 85.25 C-85.07101563 84.45078125 -85.51703125 83.6515625 -85.9765625 82.828125 C-86.31429687 82.22484375 -86.65203125 81.6215625 -87 81 C-87.66 81 -88.32 81 -89 81 Z M-96 86 C-99.76556006 91.64834008 -99.78253992 97.36580043 -99 104 C-97.7569804 108.19017899 -96.03346361 111.05511898 -92.8125 114 C-88.84931337 115.40913302 -85.16216359 115.24483315 -81 115 C-81.70125 114.34 -82.4025 113.68 -83.125 113 C-89.33227456 106.79272544 -94.04425028 100.654829 -94.625 91.75 C-94.69976562 90.67234375 -94.77453125 89.5946875 -94.8515625 88.484375 C-94.90054688 87.66453125 -94.94953125 86.8446875 -95 86 C-95.33 86 -95.66 86 -96 86 Z M-65 105 C-65 105.99 -65 106.98 -65 108 C-63.21385682 109.03046722 -61.42089982 110.04913236 -59.625 111.0625 C-58.62726563 111.63097656 -57.62953125 112.19945312 -56.6015625 112.78515625 C-55.31378906 113.38650391 -55.31378906 113.38650391 -54 114 C-53.34 113.67 -52.68 113.34 -52 113 C-54.40689803 110.27324841 -56.92471023 108.88033404 -60.1875 107.3125 C-61.08855469 106.87550781 -61.98960937 106.43851562 -62.91796875 105.98828125 C-63.60503906 105.66214844 -64.29210937 105.33601563 -65 105 Z M-84 121 C-81.89748139 121.67184618 -79.79292237 122.33730968 -77.6875 123 C-75.92986328 123.556875 -75.92986328 123.556875 -74.13671875 124.125 C-71.06113324 125.13434772 -71.06113324 125.13434772 -68 125 C-68 124.34 -68 123.68 -68 123 C-69.64606717 121.62997858 -69.64606717 121.62997858 -71.75 120.375 C-72.44609375 119.92898438 -73.1421875 119.48296875 -73.859375 119.0234375 C-78.21919279 116.93899907 -80.60668943 118.09144809 -84 121 Z " fill="#010B13" transform="translate(287,150)"/>
<path d="M0 0 C3.37316783 3.37316783 3.19864547 7.12391073 3.3125 11.75 C3.17326134 21.33426139 -0.9638445 26.64580868 -7.40625 33.49609375 C-25.33841659 50.80711601 -49.80350274 60.46240783 -72 71 C-46.35704462 64.23865318 -12.38373725 47.68307011 1.921875 24.11328125 C3.60174906 20.82048463 4.85030073 17.51296998 6 14 C9.62195194 19.43292791 10.50428328 25.63508703 9.5 32.0625 C8.1768716 37.5001309 5.42366178 41.64120712 2 46 C1.24589844 46.97066406 0.49179687 47.94132812 -0.28515625 48.94140625 C-3.04408076 52.21540562 -6.16018056 54.69526962 -9.625 57.1875 C-10.26453613 57.65164307 -10.90407227 58.11578613 -11.56298828 58.59399414 C-39.99088278 78.7770531 -39.99088278 78.7770531 -53.5625 78.25 C-54.78066406 78.21390625 -55.99882812 78.1778125 -57.25390625 78.140625 C-58.16011719 78.09421875 -59.06632812 78.0478125 -60 78 C-60 78.66 -60 79.32 -60 80 C-59.34 80 -58.68 80 -58 80 C-58.3125 81.9375 -58.3125 81.9375 -59 84 C-62 85 -62 85 -64.5234375 83.7421875 C-78.89198736 74.33373979 -78.89198736 74.33373979 -82 66 C-82.43676733 63.33610694 -82.72148166 60.68770201 -83 58 C-74.63058401 53.75916328 -66.22245208 49.61870033 -57.74291992 45.60180664 C-43.01320978 38.61010127 -28.92099079 31.38096673 -15.671875 21.84765625 C-13 20 -13 20 -10.69921875 18.85546875 C-8.37596794 17.68583214 -8.1044916 16.33892339 -7 14 C-5.7625 12.63875 -5.7625 12.63875 -4.5 11.25 C-1.49078634 7.78807278 -0.84527908 4.45692605 0 0 Z " fill="#9F9F9F" transform="translate(287,150)"/>
<path d="M0 0 C5.32783546 0.28041239 8.79844212 2.50015743 13.14453125 5.33203125 C16.21348844 7.12470529 19.33339347 8.52389652 22.58862305 9.93969727 C44.0644142 19.38278332 71.91046417 32.25959487 81.375 55.3125 C85.66407379 66.89299922 84.23067632 78.27768364 81 90 C80.34 90.66 79.68 91.32 79 92 C78.82984375 91.47792969 78.6596875 90.95585937 78.484375 90.41796875 C77.9649205 88.84026385 77.43815461 87.2649574 76.90625 85.69140625 C76.30733227 83.91272387 75.72367877 82.12882057 75.15625 80.33984375 C65.14364003 50.34517165 34.21223062 35.90745912 8.45703125 21.42578125 C6 20 6 20 5 19 C4.95919217 17.00041636 4.95745644 14.99954746 5 13 C4.34 13 3.68 13 3 13 C2.67 13.99 2.34 14.98 2 16 C-6 14 -6 14 -9 11 C-9 10.01 -9 9.02 -9 8 C-7.02053408 6.63636792 -5.0180755 5.30581356 -3 4 C-1.16699091 1.89424357 -1.16699091 1.89424357 0 0 Z " fill="#29B5E4" transform="translate(220,258)"/>
<path d="M0 0 C0.495 5.445 0.495 5.445 1 11 C-3 10 -3 10 -4.6875 7.5 C-5.120625 6.675 -5.55375 5.85 -6 5 C-7.00836062 3.76732652 -7.00836062 3.76732652 -9.06640625 3.90234375 C-10.30197266 3.91974609 -10.30197266 3.91974609 -11.5625 3.9375 C-12.38878906 3.94652344 -13.21507812 3.95554688 -14.06640625 3.96484375 C-15.02353516 3.98224609 -15.02353516 3.98224609 -16 4 C-16.67012422 6.7859186 -16.67012422 6.7859186 -16 10 C-13.60543854 12.1326563 -10.8202617 13.50128707 -8 15 C-6.55470383 15.86206161 -5.11679597 16.73666206 -3.6875 17.625 C-3.05199219 18.00914062 -2.41648437 18.39328125 -1.76171875 18.7890625 C1.53769894 21.05695493 2.83027594 22.3574732 3.875 26.3125 C4.01924006 30.56758189 3.32570766 32.4713401 1 36 C-1.96338665 38.86120091 -5.12706697 39.75305294 -9 41 C-8.3709375 41.46148437 -7.741875 41.92296875 -7.09375 42.3984375 C5.44534193 51.95382984 12.72703052 62.32212154 15.59375 77.82421875 C16.16704245 82.36169818 15.8886261 86.71814781 15.375 91.25 C15.29362793 91.97695068 15.21225586 92.70390137 15.12841797 93.45288086 C14.70321375 96.45167087 14.32837367 98.58912852 12.4140625 100.984375 C11.71410156 101.48710937 11.71410156 101.48710937 11 102 C9 100 9 100 8.6875 96.1875 C7.34607766 82.06846143 -0.50422959 71.43495273 -10.87890625 62.38671875 C-17.51606852 57.31124172 -24.77875408 53.18104854 -32 49 C-32.72026367 48.58202148 -33.44052734 48.16404297 -34.18261719 47.73339844 C-38.10696283 45.46237357 -42.04576411 43.21869506 -46 41 C-44.71936134 38.43872269 -43.73265275 38.36797849 -41.125 37.3125 C-37.8488352 35.76835781 -36.39986288 34.61374818 -35 31.25 C-34.67 30.1775 -34.34 29.105 -34 28 C-30.65626525 28.55728913 -27.96687001 29.35173889 -25 31 C-24.67 29.68 -24.34 28.36 -24 27 C-23.01 27 -22.02 27 -21 27 C-20.566875 27.94875 -20.13375 28.8975 -19.6875 29.875 C-18.20697799 33.20041937 -18.20697799 33.20041937 -15 35 C-12.78417411 35.31560324 -12.78417411 35.31560324 -10.4375 35.25 C-9.65246094 35.25515625 -8.86742187 35.2603125 -8.05859375 35.265625 C-5.77709032 35.18429262 -5.77709032 35.18429262 -4 33 C-3.41597867 30.58582128 -3.41597867 30.58582128 -4 28 C-7.50139701 24.26517653 -12.1129962 22.37011574 -16.6953125 20.24609375 C-18.96729357 19.01768364 -20.40677423 18.0214052 -22 16 C-23.04131937 11.46282273 -23.37285519 9.0978514 -21.875 4.6875 C-16.422333 -3.12798937 -8.31068174 -1.38511362 0 0 Z " fill="#2EC2ED" transform="translate(296,228)"/>
<path d="M0 0 C3.62195194 5.43292791 4.50428328 11.63508703 3.5 18.0625 C2.1768716 23.5001309 -0.57633822 27.64120712 -4 32 C-4.75410156 32.97066406 -5.50820313 33.94132812 -6.28515625 34.94140625 C-9.04408076 38.21540562 -12.16018056 40.69526962 -15.625 43.1875 C-16.26453613 43.65164307 -16.90407227 44.11578613 -17.56298828 44.59399414 C-46.21830941 64.93852004 -46.21830941 64.93852004 -61 64 C-61 63.34 -61 62.68 -61 62 C-61.66 62 -62.32 62 -63 62 C-63 58.7 -63 55.4 -63 52 C-61.51113281 51.27296875 -61.51113281 51.27296875 -59.9921875 50.53125 C-24.3415973 33.69524006 -24.3415973 33.69524006 -1.125 3.4375 C-0.75375 2.303125 -0.3825 1.16875 0 0 Z " fill="#8B8B8B" transform="translate(293,164)"/>
<path d="M0 0 C5.94 0 11.88 0 18 0 C18 0.66 18 1.32 18 2 C17.360625 2.2475 16.72125 2.495 16.0625 2.75 C13.50980961 3.96621634 13.50980961 3.96621634 13 8 C13 10.97 13 13.94 13 17 C21.91 20.96 21.91 20.96 31 25 C31.020625 22.091875 31.04125 19.18375 31.0625 16.1875 C31.071604 15.27508545 31.08070801 14.3626709 31.09008789 13.42260742 C31.09258545 12.69920166 31.09508301 11.9757959 31.09765625 11.23046875 C31.10289307 10.49207764 31.10812988 9.75368652 31.11352539 8.99291992 C31.07523213 6.78942591 31.07523213 6.78942591 30 4 C27.99983534 2.79117904 27.99983534 2.79117904 26 2 C26 1.34 26 0.68 26 0 C30.95 0 35.9 0 41 0 C40.67 0.99 40.34 1.98 40 3 C39.01 3 38.02 3 37 3 C36.9906543 3.71542969 36.98130859 4.43085938 36.97167969 5.16796875 C36.91761155 8.44598192 36.83403529 11.72262361 36.75 15 C36.73582031 16.12535156 36.72164063 17.25070313 36.70703125 18.41015625 C36.51380233 25.01858521 36.08967251 30.59628585 32 36 C27.5729775 39.7979193 22.49000662 41.4112223 16.6875 41.125 C12.14841211 40.3887385 9.7612865 38.77375822 7 35 C7 34.34 7 33.68 7 33 C6.34 32.67 5.68 32.34 5 32 C5.01160156 30.88882812 5.02320313 29.77765625 5.03515625 28.6328125 C5.09238598 20.67698604 5.00419086 12.90800301 4 5 C3.01 5.33 2.02 5.66 1 6 C1.33 4.68 1.66 3.36 2 2 C1.34 2 0.68 2 0 2 C0 1.34 0 0.68 0 0 Z " fill="#04080C" transform="translate(227,228)"/>
<path d="M0 0 C5.94 0 11.88 0 18 0 C17.67 0.99 17.34 1.98 17 3 C16.34 3 15.68 3 15 3 C15.78483659 4.48280196 16.57809334 5.9611498 17.375 7.4375 C17.81585938 8.26121094 18.25671875 9.08492187 18.7109375 9.93359375 C19.83418559 12.13466578 19.83418559 12.13466578 22 13 C22.81721717 11.89932004 23.62859451 10.79430269 24.4375 9.6875 C24.88996094 9.07261719 25.34242188 8.45773438 25.80859375 7.82421875 C27.17336308 5.90322899 27.17336308 5.90322899 28 3 C26.68 2.67 25.36 2.34 24 2 C24 1.34 24 0.68 24 0 C28.95 0 33.9 0 39 0 C37.72544199 3.82367404 36.38269926 3.97720433 33 6 C30.68048344 8.31652814 30.68048344 8.31652814 28.625 10.9375 C27.91601562 11.79214844 27.20703125 12.64679688 26.4765625 13.52734375 C24.7647126 15.80590835 24.7647126 15.80590835 25.27587891 17.9453125 C26.47841076 21.35748651 28.6563228 24.14890008 30.75 27.0625 C31.18054688 27.68705078 31.61109375 28.31160156 32.0546875 28.95507812 C34.69005801 32.65169813 36.95821031 34.7828312 41 37 C41 37.66 41 38.32 41 39 C35.06 39 29.12 39 23 39 C23 38.34 23 37.68 23 37 C24.98 36.505 24.98 36.505 27 36 C25.88368586 34.16136495 24.75670373 32.32920277 23.625 30.5 C22.99851563 29.4790625 22.37203125 28.458125 21.7265625 27.40625 C21.15679687 26.6121875 20.58703125 25.818125 20 25 C19.34 25 18.68 25 18 25 C16.55925285 26.782129 15.19489351 28.62660276 13.875 30.5 C12.78832031 32.03140625 12.78832031 32.03140625 11.6796875 33.59375 C11.12539062 34.3878125 10.57109375 35.181875 10 36 C11.32 36.33 12.64 36.66 14 37 C14 37.66 14 38.32 14 39 C9.05 39 4.1 39 -1 39 C0 36 0 36 2.125 34.8125 C8.1931104 30.98695214 12.13628448 24.92661833 16 19 C14.47405886 16.71711968 12.93081226 14.44989175 11.375 12.1875 C10.94832031 11.54490234 10.52164063 10.90230469 10.08203125 10.24023438 C7.20997865 6.10362131 4.82265978 3.90219279 0 2 C0 1.34 0 0.68 0 0 Z " fill="#020202" transform="translate(137,228)"/>
<path d="M0 0 C9.9 0 19.8 0 30 0 C30.33 2.97 30.66 5.94 31 9 C30.01 9 29.02 9 28 9 C27.71125 8.360625 27.4225 7.72125 27.125 7.0625 C26.17176549 4.84793921 26.17176549 4.84793921 24 4 C21.795636 3.77049681 19.58607827 3.58924067 17.375 3.4375 C15.27125 3.293125 13.1675 3.14875 11 3 C11 7.62 11 12.24 11 17 C15.95514502 16.12527407 15.95514502 16.12527407 19.4375 12.875 C19.623125 12.25625 19.80875 11.6375 20 11 C20.99 11 21.98 11 23 11 C23 15.95 23 20.9 23 26 C22.01 26 21.02 26 20 26 C19.814375 25.38125 19.62875 24.7625 19.4375 24.125 C17.28562767 20.94397134 14.62466237 20.80548053 11 20 C11.1141866 21.93816735 11.24173423 23.87555099 11.375 25.8125 C11.44460938 26.89144531 11.51421875 27.97039062 11.5859375 29.08203125 C11.81195733 32.18626186 11.81195733 32.18626186 14 35 C16.55894585 35.47907176 16.55894585 35.47907176 19.4375 35.375 C20.40558594 35.38273437 21.37367188 35.39046875 22.37109375 35.3984375 C25.3935271 34.94035696 26.1712603 34.38239483 28 32 C28.66 31.01 29.32 30.02 30 29 C30.99 29 31.98 29 33 29 C32.505 33.95 32.505 33.95 32 39 C21.44 39 10.88 39 0 39 C0.33 38.01 0.66 37.02 1 36 C2.485 35.505 2.485 35.505 4 35 C4 24.77 4 14.54 4 4 C2.68 3.34 1.36 2.68 0 2 C0 1.34 0 0.68 0 0 Z " fill="#030203" transform="translate(366,228)"/>
<path d="M0 0 C9.9 0 19.8 0 30 0 C30 2.97 30 5.94 30 9 C29.01 8.67 28.02 8.34 27 8 C26.67 6.68 26.34 5.36 26 4 C21.05 3.67 16.1 3.34 11 3 C11 7.62 11 12.24 11 17 C15.95514502 16.12527407 15.95514502 16.12527407 19.4375 12.875 C19.623125 12.25625 19.80875 11.6375 20 11 C20.99 11.33 21.98 11.66 23 12 C23 16.29 23 20.58 23 25 C22.01 25.33 21.02 25.66 20 26 C19.814375 25.38125 19.62875 24.7625 19.4375 24.125 C17.73128685 21.11246928 17.73128685 21.11246928 11 20 C11.33 24.95 11.66 29.9 12 35 C19.74082318 35.83020791 19.74082318 35.83020791 26.85546875 33.67578125 C28.19029549 31.885642 28.19029549 31.885642 29 29 C29.99 29 30.98 29 32 29 C32 32.3 32 35.6 32 39 C21.11 39 10.22 39 -1 39 C-1 38.34 -1 37.68 -1 37 C1.475 36.505 1.475 36.505 4 36 C4 25.11 4 14.22 4 3 C2.68 2.67 1.36 2.34 0 2 C0 1.34 0 0.68 0 0 Z " fill="#030202" transform="translate(102,228)"/>
<path d="M0 0 C0.33 3.63 0.66 7.26 1 11 C-3 10 -3 10 -4.6875 7.5 C-5.120625 6.675 -5.55375 5.85 -6 5 C-7.00836062 3.76732652 -7.00836062 3.76732652 -9.06640625 3.90234375 C-10.30197266 3.91974609 -10.30197266 3.91974609 -11.5625 3.9375 C-12.38878906 3.94652344 -13.21507812 3.95554688 -14.06640625 3.96484375 C-15.02353516 3.98224609 -15.02353516 3.98224609 -16 4 C-16.67012422 6.7859186 -16.67012422 6.7859186 -16 10 C-13.60543854 12.1326563 -10.8202617 13.50128707 -8 15 C-6.55470383 15.86206161 -5.11679597 16.73666206 -3.6875 17.625 C-3.05199219 18.00914062 -2.41648437 18.39328125 -1.76171875 18.7890625 C1.53769894 21.05695493 2.83027594 22.3574732 3.875 26.3125 C4.01924006 30.56758189 3.32570766 32.4713401 1 36 C-2.17980838 39.29757907 -6.45068071 40.85633729 -11 41 C-13.50960289 40.1634657 -15.7037558 39.12235743 -18.01953125 37.84765625 C-20.14391451 36.67907825 -20.14391451 36.67907825 -23 38 C-23.33 34.37 -23.66 30.74 -24 27 C-23.01 27 -22.02 27 -21 27 C-20.566875 27.94875 -20.13375 28.8975 -19.6875 29.875 C-18.20697799 33.20041937 -18.20697799 33.20041937 -15 35 C-12.78417411 35.31560324 -12.78417411 35.31560324 -10.4375 35.25 C-9.65246094 35.25515625 -8.86742187 35.2603125 -8.05859375 35.265625 C-5.77709032 35.18429262 -5.77709032 35.18429262 -4 33 C-3.41597867 30.58582128 -3.41597867 30.58582128 -4 28 C-7.50139701 24.26517653 -12.1129962 22.37011574 -16.6953125 20.24609375 C-18.96729357 19.01768364 -20.40677423 18.0214052 -22 16 C-23.04131937 11.46282273 -23.37285519 9.0978514 -21.875 4.6875 C-16.422333 -3.12798937 -8.31068174 -1.38511362 0 0 Z " fill="#030303" transform="translate(296,228)"/>
<path d="M0 0 C2 2 2 2 2.16357422 3.93603516 C2.1276416 4.71253418 2.09170898 5.4890332 2.0546875 6.2890625 C2.03019531 7.14886719 2.00570312 8.00867188 1.98046875 8.89453125 C1.91104776 10.69176357 1.8331471 12.48869167 1.74609375 14.28515625 C1.59595498 20.22888536 2.21200171 25.20157121 6 30 C10.60319206 32.75804307 15.7353236 33.45159621 21 34 C20 37 20 37 18 38 C22.62 39.65 27.24 41.3 32 43 C32.495 42.01 32.495 42.01 33 41 C33.66 41 34.32 41 35 41 C35.495 40.01 35.495 40.01 36 39 C36.66 39 37.32 39 38 39 C38.25 41.8125 38.25 41.8125 38 45 C35.78666736 47.56746586 33.96903574 48.00817924 30.6875 48.875 C25.22458444 49.06018358 21.59027891 46.85875061 16.875 44.3125 C13.91279751 42.96019017 12.20542086 42.55480266 9 43 C8.34 43.66 7.68 44.32 7 45 C5.68 45 4.36 45 3 45 C3.34879632 41.74456771 4.02133261 40.98126893 6.5625 38.75 C7.366875 38.1725 8.17125 37.595 9 37 C7.80375 36.484375 6.6075 35.96875 5.375 35.4375 C-0.24489844 32.61758642 -3.7209579 28.73249903 -6.375 23.0625 C-7.80006372 16.07968779 -7.33593872 10.30897196 -4 4 C-1.8125 1.5 -1.8125 1.5 0 0 Z " fill="#030506" transform="translate(187,232)"/>
<path d="M0 0 C12.87 0 25.74 0 39 0 C39 3.3 39 6.6 39 10 C38.01 10 37.02 10 36 10 C35.690625 9.195625 35.38125 8.39125 35.0625 7.5625 C34.23664655 5.10919595 34.23664655 5.10919595 33 4 C29.7 3.67 26.4 3.34 23 3 C23.33 13.89 23.66 24.78 24 36 C25.65 36.33 27.3 36.66 29 37 C29 37.66 29 38.32 29 39 C22.4 39 15.8 39 9 39 C9 38.34 9 37.68 9 37 C10.98 36.01 12.96 35.02 15 34 C15.33 23.77 15.66 13.54 16 3 C7.12731854 3.28800934 7.12731854 3.28800934 4 5 C3.27840576 6.64363134 2.60648579 8.31050386 2 10 C1.34 10 0.68 10 0 10 C0 6.7 0 3.4 0 0 Z " fill="#020202" transform="translate(324,228)"/>
<path d="M0 0 C0.45439453 0.97839844 0.45439453 0.97839844 0.91796875 1.9765625 C4.90269771 10.80514977 4.90269771 10.80514977 12 17 C12 17.66 12 18.32 12 19 C13.65 19.66 15.3 20.32 17 21 C16.58923571 26.23724464 15.81714069 29.29192047 12 33 C10.10546875 33.80859375 10.10546875 33.80859375 8 34 C1.50356226 30.35726062 -3.05710916 23.68281461 -6 17 C-7.28543247 12.00288126 -7.45897116 6.98481814 -6 2 C-3 0 -3 0 0 0 Z " fill="#127DB4" transform="translate(198,231)"/>
<path d="M0 0 C4.12751449 0.60698743 7.3321148 2.03810791 11 4 C11 5.98 11 7.96 11 10 C11.66 10 12.32 10 13 10 C13.33 9.34 13.66 8.68 14 8 C14.99 8.66 15.98 9.32 17 10 C18.423125 10.433125 18.423125 10.433125 19.875 10.875 C23.23030271 12.08290897 25.3429584 13.65555153 28 16 C26.02 15.67 24.04 15.34 22 15 C22 14.34 22 13.68 22 13 C17.78099043 12.5638859 17.78099043 12.5638859 14.25 14.5 C13.8375 14.995 13.425 15.49 13 16 C12.34 16 11.68 16 11 16 C11 15.34 11 14.68 11 14 C10.01 14.495 10.01 14.495 9 15 C9 16.98 9 18.96 9 21 C10.65 21.33 12.3 21.66 14 22 C14 23.65 14 25.3 14 27 C10.55688942 25.68706289 7.35788604 24.1856658 4.13671875 22.3984375 C3.25048828 21.90859375 2.36425781 21.41875 1.45117188 20.9140625 C0.53916016 20.40617187 -0.37285156 19.89828125 -1.3125 19.375 C-2.24384766 18.859375 -3.17519531 18.34375 -4.13476562 17.8125 C-6.42463469 16.54426483 -8.71297715 15.27335838 -11 14 C-11 13.01 -11 12.02 -11 11 C-10.45730469 10.79246094 -9.91460937 10.58492188 -9.35546875 10.37109375 C-5.32645329 8.63607628 -2.73668287 7.42651051 -1 3.25 C-0.67 2.1775 -0.34 1.105 0 0 Z " fill="#27ADDD" transform="translate(262,256)"/>
<path d="M0 0 C5.43942188 0.28628536 8.94697433 2.64131797 13.42578125 5.453125 C16.42008605 7.25243411 19.47314077 8.62714108 22.68359375 9.98828125 C26.87271906 11.81793294 30.92788238 13.92568539 35 16 C31.22420549 17.25859817 30.60859968 16.49050856 27 15 C24.01643165 14.25285431 21.01292059 13.61702513 18 13 C18 12.34 18 11.68 18 11 C17.01 11.66 16.02 12.32 15 13 C13.68 13 12.36 13 11 13 C11.66 16.3 12.32 19.6 13 23 C7.25 21.25 7.25 21.25 5 19 C4.875 15.875 4.875 15.875 5 13 C4.34 13 3.68 13 3 13 C2.67 13.99 2.34 14.98 2 16 C-6 14 -6 14 -9 11 C-9 10.01 -9 9.02 -9 8 C-7.02053408 6.63636792 -5.0180755 5.30581356 -3 4 C-1.16699091 1.89424357 -1.16699091 1.89424357 0 0 Z " fill="#1790C8" transform="translate(220,258)"/>
<path d="M0 0 C1.890625 0.2265625 1.890625 0.2265625 4 1 C9.91747583 11.73094498 7.081423 25.81924041 4 37 C3.34 37.66 2.68 38.32 2 39 C1.82984375 38.47792969 1.6596875 37.95585937 1.484375 37.41796875 C0.9649205 35.84026385 0.43815461 34.2649574 -0.09375 32.69140625 C-0.69266773 30.91272387 -1.27632123 29.12882057 -1.84375 27.33984375 C-4.44504268 19.54717817 -8.12508348 11.87491652 -14 6 C-13.625 3.875 -13.625 3.875 -13 2 C-10.47411298 4.36292656 -9.11179163 5.66462511 -8 9 C-6.68 9 -5.36 9 -4 9 C-3.71125 8.071875 -3.4225 7.14375 -3.125 6.1875 C-2 3 -2 3 0 0 Z " fill="#39D0F1" transform="translate(297,311)"/>
<path d="M0 0 C5.61 0 11.22 0 17 0 C17 0.66 17 1.32 17 2 C15.02 2.99 15.02 2.99 13 4 C13 14.23 13 24.46 13 35 C14.32 35.66 15.64 36.32 17 37 C17 37.66 17 38.32 17 39 C11.39 39 5.78 39 0 39 C0.33 38.01 0.66 37.02 1 36 C2.485 35.505 2.485 35.505 4 35 C4 24.77 4 14.54 4 4 C2.68 3.34 1.36 2.68 0 2 C0 1.34 0 0.68 0 0 Z " fill="#010101" transform="translate(304,228)"/>
<path d="M0 0 C0.66 0.33 1.32 0.66 2 1 C1.01 1.66 0.02 2.32 -1 3 C-1.33 2.34 -1.66 1.68 -2 1 C-1.34 0.67 -0.68 0.34 0 0 Z M-4 2 C-3.34 2.33 -2.68 2.66 -2 3 C-2.99 4.485 -2.99 4.485 -4 6 C-3.67156616 8.06381575 -3.67156616 8.06381575 -3 10 C-3 10.66 -3 11.32 -3 12 C2.04468729 14.21474076 4.85910687 13.85072153 10 12 C10 12.66 10 13.32 10 14 C8.02 14.99 6.04 15.98 4 17 C11.60817846 14.81386858 11.60817846 14.81386858 19 12 C20.2380014 15.57644848 19.74926071 18.33694766 19 22 C19.66 22 20.32 22 21 22 C21 22.66 21 23.32 21 24 C19.35 24 17.7 24 16 24 C16 24.66 16 25.32 16 26 C16.66 26 17.32 26 18 26 C17.6875 27.9375 17.6875 27.9375 17 30 C14 31 14 31 11.4765625 29.7421875 C-4.46195016 19.30573675 -4.46195016 19.30573675 -6.46875 9.7734375 C-6.71262898 7.85627772 -6.86471101 5.92786811 -7 4 C-6.01 3.34 -5.02 2.68 -4 2 Z " fill="#BCBDBD" transform="translate(211,204)"/>
<path d="M0 0 C3.37316783 3.37316783 3.19864547 7.12391073 3.3125 11.75 C3.15606807 22.51773148 -2.54919229 28.6178001 -10 36 C-10.99 36.66 -11.98 37.32 -13 38 C-13.495 36.515 -13.495 36.515 -14 35 C-12.515 34.505 -12.515 34.505 -11 34 C-11.33 32.35 -11.66 30.7 -12 29 C-12.66 29 -13.32 29 -14 29 C-14.144375 28.21625 -14.28875 27.4325 -14.4375 26.625 C-14.87798925 24.03578982 -14.87798925 24.03578982 -16 22 C-11.25 18 -11.25 18 -9 18 C-8.6596875 17.195625 -8.6596875 17.195625 -8.3125 16.375 C-7 14 -7 14 -4.5 11.25 C-1.49078634 7.78807278 -0.84527908 4.45692605 0 0 Z " fill="#717171" transform="translate(287,150)"/>
<path d="M0 0 C5.00600922 0.54681024 8.97181067 2.24140333 13.375 4.5625 C14.01566406 4.89185547 14.65632812 5.22121094 15.31640625 5.56054688 C16.88138632 6.36639482 18.44124021 7.18218493 20 8 C20.18054244 11.58075836 20.18570865 12.72143703 18.125 15.8125 C14.28536797 18.50024242 11.90424838 18.65908139 7.3125 18.43359375 C5 18 5 18 2.4375 16.125 C-0.03956025 12.46325876 -0.10951574 10.29447939 -0.0625 5.875 C-0.05347656 4.77929688 -0.04445312 3.68359375 -0.03515625 2.5546875 C-0.02355469 1.71164063 -0.01195312 0.86859375 0 0 Z " fill="#2999C7" transform="translate(239,246)"/>
<path d="M0 0 C1.89453125 0.2265625 1.89453125 0.2265625 4 1 C9.24697308 10.84567149 8.90476371 24.56656301 6 35 C4.421875 36.875 4.421875 36.875 3 38 C0.65227567 35.65227567 0.71997087 35.00757688 0.5 31.8125 C0.23905716 28.8768931 -0.13970367 26.53723161 -1 23.6875 C-2.60041226 17.78597979 -3.96480907 10.8944272 -2 5 C-1.34 4.34 -0.68 3.68 0 3 C0 2.01 0 1.02 0 0 Z " fill="#43CDF2" transform="translate(304,292)"/>
<path d="M0 0 C2.31632275 1.28518553 4.62796942 2.57771266 6.9375 3.875 C7.59685547 4.23980469 8.25621094 4.60460937 8.93554688 4.98046875 C13.88671875 7.7734375 13.88671875 7.7734375 15 10 C15.07194869 12.88370333 15.09291708 15.74239664 15.0625 18.625 C15.05798828 19.42679688 15.05347656 20.22859375 15.04882812 21.0546875 C15.03703168 23.03649006 15.01909605 25.01825433 15 27 C10.37047008 26.15611635 7.4228692 25.4228692 4 22 C3.72814562 18.97394883 3.88418172 16.08672515 4.0546875 13.0546875 C3.9732252 8.50443599 2.29300293 5.86944245 0 2 C0 1.34 0 0.68 0 0 Z " fill="#178EC3" transform="translate(218,233)"/>
<path d="M0 0 C0.33773437 0.68707031 0.67546875 1.37414062 1.0234375 2.08203125 C1.46945313 2.98308594 1.91546875 3.88414062 2.375 4.8125 C2.81585938 5.70582031 3.25671875 6.59914062 3.7109375 7.51953125 C5.01866905 10.14556381 5.01866905 10.14556381 7 13 C5.35 12.67 3.7 12.34 2 12 C2.020625 12.94875 2.04125 13.8975 2.0625 14.875 C2 18 2 18 1 20 C0.34 20 -0.32 20 -1 20 C-0.484375 20.94875 0.03125 21.8975 0.5625 22.875 C1.036875 23.90625 1.51125 24.9375 2 26 C1.67 26.66 1.34 27.32 1 28 C-4.95865668 19.90522112 -7.61778262 13.95944443 -6.58203125 3.8828125 C-5.50283543 0.39172268 -3.37174409 0 0 0 Z " fill="#1372A7" transform="translate(198,231)"/>
<path d="M0 0 C5.62266579 0.38119768 8.96611439 0.73560664 13 5 C16.34446833 9.95903925 16.34573147 14.23780888 16 20 C13.50638429 18.79618552 11.31856917 17.54571278 9 16 C9 15.34 9 14.68 9 14 C8.34 14 7.68 14 7 14 C5.2734375 11.953125 5.2734375 11.953125 3.375 9.25 C2.74335938 8.36828125 2.11171875 7.4865625 1.4609375 6.578125 C0 4 0 4 0 0 Z " fill="#117AB2" transform="translate(200,230)"/>
<path d="M0 0 C0.33 0 0.66 0 1 0 C1.22042969 0.94359375 1.22042969 0.94359375 1.4453125 1.90625 C2.95530128 7.66850604 4.9043413 11.80427501 8.6953125 16.40625 C10 18 10 18 11 20 C9.97326172 19.75443359 9.97326172 19.75443359 8.92578125 19.50390625 C5.6256722 18.93552966 2.53445931 18.90369233 -0.8125 18.9375 C-1.97394531 18.94652344 -3.13539063 18.95554688 -4.33203125 18.96484375 C-5.21246094 18.97644531 -6.09289062 18.98804688 -7 19 C-6.505 17.515 -6.505 17.515 -6 16 C-5.34 16.33 -4.68 16.66 -4 17 C-4.061875 15.845 -4.12375 14.69 -4.1875 13.5 C-4.20435635 8.77179373 -2.89031244 5.30991237 -1 1 C-0.67 0.67 -0.34 0.34 0 0 Z " fill="#1672A7" transform="translate(202,210)"/>
<path d="M0 0 C4.95 0 9.9 0 15 0 C14.67 0.99 14.34 1.98 14 3 C13.01 3 12.02 3 11 3 C10.67 10.92 10.34 18.84 10 27 C9.01 27 8.02 27 7 27 C6.92652344 25.26363281 6.92652344 25.26363281 6.8515625 23.4921875 C6.77648522 21.9531033 6.70093957 20.4140419 6.625 18.875 C6.5940625 18.11445313 6.563125 17.35390625 6.53125 16.5703125 C6.29893698 12.07892741 5.80853984 8.18547792 4 4 C1.99863756 2.57944932 1.99863756 2.57944932 0 2 C0 1.34 0 0.68 0 0 Z " fill="#020303" transform="translate(253,228)"/>
<path d="M0 0 C1.32 0.33 2.64 0.66 4 1 C5.0219601 4.18184739 4.94954615 6.32243328 4.1875 9.5625 C4.01605469 10.32691406 3.84460938 11.09132813 3.66796875 11.87890625 C2.72338944 14.87835986 1.64050596 16.6420702 -1.125 18.1875 C-1.74375 18.455625 -2.3625 18.72375 -3 19 C-3.12375 18.4225 -3.2475 17.845 -3.375 17.25 C-4.01416567 14.94900359 -4.79305636 13.05890385 -6 11 C-6.66 10.67 -7.32 10.34 -8 10 C-7.38125 9.95875 -6.7625 9.9175 -6.125 9.875 C-5.42375 9.58625 -4.7225 9.2975 -4 9 C-2.81664605 6.11681225 -2.81664605 6.11681225 -2 3 C-1.34 2.01 -0.68 1.02 0 0 Z " fill="#33D1F9" transform="translate(297,311)"/>
<path d="M0 0 C0.33 0.66 0.66 1.32 1 2 C1.94875 1.938125 2.8975 1.87625 3.875 1.8125 C4.90625 1.874375 5.9375 1.93625 7 2 C7.99 3.485 7.99 3.485 9 5 C9 4.34 9 3.68 9 3 C10.65 3 12.3 3 14 3 C14 5.31 14 7.62 14 10 C12.68 9.67 11.36 9.34 10 9 C10 9.66 10 10.32 10 11 C4.73144399 11.34547908 4.73144399 11.34547908 2 11 C-0.49113783 8.74994002 -1.67576278 6.35045132 -2 3 C-1.34 2.01 -0.68 1.02 0 0 Z " fill="#1D9FD2" transform="translate(243,252)"/>
<path d="M0 0 C1.32 0.33 2.64 0.66 4 1 C5.10285204 6.23854718 5.56629169 11.66342068 5 17 C4.34 17.66 3.68 18.32 3 19 C2.67 18.67 2.34 18.34 2 18 C1.67 18.99 1.34 19.98 1 21 C0.01 20.67 -0.98 20.34 -2 20 C-2.19517554 18.06325815 -2.38087873 16.12555991 -2.5625 14.1875 C-2.66691406 13.10855469 -2.77132813 12.02960938 -2.87890625 10.91796875 C-3 8 -3 8 -2 5 C-1.34 4.34 -0.68 3.68 0 3 C0 2.01 0 1.02 0 0 Z " fill="#35D2F9" transform="translate(304,292)"/>
<path d="M0 0 C0.66 0.33 1.32 0.66 2 1 C1.01 1.66 0.02 2.32 -1 3 C-1.33 2.34 -1.66 1.68 -2 1 C-1.34 0.67 -0.68 0.34 0 0 Z M-4 2 C-3.34 2.33 -2.68 2.66 -2 3 C-2.99 4.485 -2.99 4.485 -4 6 C-3.67156616 8.06381575 -3.67156616 8.06381575 -3 10 C-3 10.66 -3 11.32 -3 12 C2.04468729 14.21474076 4.85910687 13.85072153 10 12 C10 12.66 10 13.32 10 14 C8.02 14.99 6.04 15.98 4 17 C4.66 17.66 5.32 18.32 6 19 C6 19.99 6 20.98 6 22 C3.3125 22.4375 3.3125 22.4375 0 22 C-4.44164765 17.84724 -6.63616456 12.20175192 -7.3125 6.25 C-7.209375 5.5075 -7.10625 4.765 -7 4 C-6.01 3.34 -5.02 2.68 -4 2 Z " fill="#BCC3C7" transform="translate(211,204)"/>
<path d="M0 0 C2 1 2 1 2.70703125 2.5859375 C3.12893431 6.06241869 2.40445353 9.2381245 1.6875 12.625 C1.55666016 13.305625 1.42582031 13.98625 1.29101562 14.6875 C0.25691964 19.74308036 0.25691964 19.74308036 -2 22 C-4.28067632 16.13540375 -5.54405101 11.31099169 -5 5 C-3 2 -3 2 0 0 Z " fill="#35D4FA" transform="translate(301,328)"/>
<path d="M0 0 C4.12751449 0.60698743 7.3321148 2.03810791 11 4 C11 5.98 11 7.96 11 10 C10.34 10 9.68 10 9 10 C9 8.35 9 6.7 9 5 C6.525 4.505 6.525 4.505 4 4 C4.99 5.485 4.99 5.485 6 7 C5.360625 7.268125 4.72125 7.53625 4.0625 7.8125 C1.66868314 8.88667752 1.66868314 8.88667752 1 12 C0.01 12 -0.98 12 -2 12 C-2 11.34 -2 10.68 -2 10 C-3.65 11.65 -5.3 13.3 -7 15 C-9.475 14.01 -9.475 14.01 -12 13 C-10.71936134 10.43872269 -9.73265275 10.36797849 -7.125 9.3125 C-3.8488352 7.76835781 -2.39986288 6.61374818 -1 3.25 C-0.67 2.1775 -0.34 1.105 0 0 Z " fill="#24ABDE" transform="translate(262,256)"/>
<path d="M0 0 C5.85272256 0.45020943 10.08220119 3.03839227 15 6 C12.5332355 6.88336837 11.36140628 7.1312406 8.859375 6.22265625 C7.81523437 5.64837891 7.81523437 5.64837891 6.75 5.0625 C6.04359375 4.68222656 5.3371875 4.30195313 4.609375 3.91015625 C4.07828125 3.60980469 3.5471875 3.30945313 3 3 C2.360625 3.639375 1.72125 4.27875 1.0625 4.9375 C0.04166667 5.95833333 -0.97916667 6.97916667 -2 8 C-2.36442233 9.66014616 -2.69972883 11.32706064 -3 13 C-1.35 12.67 0.3 12.34 2 12 C2 13.32 2 14.64 2 16 C-6 14 -6 14 -9 11 C-9 10.01 -9 9.02 -9 8 C-7.02053408 6.63636792 -5.0180755 5.30581356 -3 4 C-1.16699091 1.89424357 -1.16699091 1.89424357 0 0 Z " fill="#2081B0" transform="translate(220,258)"/>
<path d="M0 0 C0.33 0 0.66 0 1 0 C1 5.61 1 11.22 1 17 C1.99 17.33 2.98 17.66 4 18 C1.98005541 23.41712412 0.35338786 26.27905357 -4.8125 29.0625 C-9.38933181 31.09664747 -12.21593097 31.35201951 -17 30 C-16.3046875 28.03125 -16.3046875 28.03125 -15 26 C-12.7578125 25.53125 -12.7578125 25.53125 -10.125 25.5 C-7.04652409 25.46324208 -5.38382599 25.2295042 -2.7265625 23.640625 C0.01199956 19.45223596 -0.32179408 15.15157796 -0.25 10.25 C-0.22035156 9.26644531 -0.19070313 8.28289062 -0.16015625 7.26953125 C-0.08957589 4.84627224 -0.03682299 2.42396846 0 0 Z " fill="#051723" transform="translate(259,238)"/>
<path d="M0 0 C2.01822917 0.29296875 4.03645833 0.5859375 6.0546875 0.87890625 C8.08140667 1.1684297 8.08140667 1.1684297 10 0 C12.125 0.4375 12.125 0.4375 14 1 C14.103125 2.093125 14.20625 3.18625 14.3125 4.3125 C14.97307727 7.85559629 15.2027092 8.93243723 18 11 C14.80971469 11 13.88744656 10.57516922 11.20703125 9.03125 C10.49482422 8.62519531 9.78261719 8.21914063 9.04882812 7.80078125 C8.31083984 7.37152344 7.57285156 6.94226563 6.8125 6.5 C6.06291016 6.07074219 5.31332031 5.64148438 4.54101562 5.19921875 C2.69071661 4.13853779 0.84491937 3.07001077 -1 2 C-0.67 1.34 -0.34 0.68 0 0 Z " fill="#28A0CD" transform="translate(234,280)"/>
<path d="M0 0 C0.99 0 1.98 0 3 0 C3.36738281 0.92039063 3.73476563 1.84078125 4.11328125 2.7890625 C6.37578428 6.6395335 8.16385182 7.55786857 12.1875 9.375 C13.27417969 9.87773437 14.36085938 10.38046875 15.48046875 10.8984375 C16.31191406 11.26195312 17.14335937 11.62546875 18 12 C15.65372783 13.48241742 14.55302473 14.11488894 11.78125 13.5390625 C11.0284375 13.23742187 10.275625 12.93578125 9.5 12.625 C6.23612521 11.33956986 4.65756347 11 1 11 C0.67 7.37 0.34 3.74 0 0 Z " fill="#040A0F" transform="translate(272,255)"/>
<path d="M0 0 C2.87436167 2.87436167 2.96762555 5.00027708 3.09765625 9.015625 C3.08605469 10.08296875 3.07445312 11.1503125 3.0625 12.25 C3.05347656 13.32765625 3.04445313 14.4053125 3.03515625 15.515625 C3.02355469 16.33546875 3.01195312 17.1553125 3 18 C2.01 18.33 1.02 18.66 0 19 C-0.66 17.02 -1.32 15.04 -2 13 C-1.67 12.67 -1.34 12.34 -1 12 C-1.99 11.67 -2.98 11.34 -4 11 C-3.525625 10.113125 -3.05125 9.22625 -2.5625 8.3125 C-1.20262851 5.42957244 -0.45939614 3.12389377 0 0 Z " fill="#686868" transform="translate(287,150)"/>
<path d="M0 0 C6.89203498 1.20337119 12.06080693 3.32135086 18 7 C17.01 7.33 16.02 7.66 15 8 C14.40703125 7.69320313 13.8140625 7.38640625 13.203125 7.0703125 C10.28104192 5.65071895 7.97979338 5.8047871 4.75 5.875 C3.13351563 5.90207031 3.13351563 5.90207031 1.484375 5.9296875 C0.66453125 5.95289063 -0.1553125 5.97609375 -1 6 C-1.33 5.01 -1.66 4.02 -2 3 C-1.34 2.01 -0.68 1.02 0 0 Z " fill="#27A7D9" transform="translate(250,274)"/>
<path d="M0 0 C1.80411967 2.75924185 2.0127245 3.88972103 1.625 7.25 C1.41875 8.1575 1.2125 9.065 1 10 C1.66 10 2.32 10 3 10 C3 10.66 3 11.32 3 12 C1.35 12 -0.3 12 -2 12 C-2 12.66 -2 13.32 -2 14 C-1.34 14 -0.68 14 0 14 C-0.3125 15.9375 -0.3125 15.9375 -1 18 C-1.99 18.33 -2.98 18.66 -4 19 C-4.99 18.34 -5.98 17.68 -7 17 C-6 15 -5 13 -4 11 C-3.34 11 -2.68 11 -2 11 C-2.020625 10.236875 -2.04125 9.47375 -2.0625 8.6875 C-2 6 -2 6 -1 3 C-1.99 3.33 -2.98 3.66 -4 4 C-4 3.34 -4 2.68 -4 2 C-2.68 1.34 -1.36 0.68 0 0 Z " fill="#B1B3B4" transform="translate(229,216)"/>
<path d="M0 0 C7.55899888 3.77949944 14.64673694 11.19404336 18 19 C17.67 19.66 17.34 20.32 17 21 C16.34 20.67 15.68 20.34 15 20 C15 19.01 15 18.02 15 17 C14.34 17 13.68 17 13 17 C12.34 15.68 11.68 14.36 11 13 C9.35 13 7.7 13 6 13 C5.896875 12.46375 5.79375 11.9275 5.6875 11.375 C4.81180468 8.34987072 3.52752839 5.7495511 2 3 C1.34 2.67 0.68 2.34 0 2 C0 1.34 0 0.68 0 0 Z " fill="#49C3E8" transform="translate(282,291)"/>
<path d="M0 0 C2.38564077 0.57584432 4.66682784 1.22227595 7 2 C7 2.66 7 3.32 7 4 C8.32 4.66 9.64 5.32 11 6 C10.67 6.99 10.34 7.98 10 9 C5.25 10.125 5.25 10.125 3 9 C3 8.01 3 7.02 3 6 C2.34 6 1.68 6 1 6 C1 5.01 1 4.02 1 3 C0.01 3.33 -0.98 3.66 -2 4 C-1.34 2.68 -0.68 1.36 0 0 Z " fill="#2DC1ED" transform="translate(275,289)"/>
<path d="M0 0 C2.97 0.495 2.97 0.495 6 1 C4.68 1.33 3.36 1.66 2 2 C2.1135629 3.64666203 2.24117381 5.29236082 2.375 6.9375 C2.44460937 7.85402344 2.51421875 8.77054688 2.5859375 9.71484375 C2.72257813 10.46894531 2.85921875 11.22304688 3 12 C3.66 12.33 4.32 12.66 5 13 C5.33 13.99 5.66 14.98 6 16 C8.64 16.33 11.28 16.66 14 17 C14 16.34 14 15.68 14 15 C14.99 15 15.98 15 17 15 C17 15.66 17 16.32 17 17 C13.31123973 18.84438013 9.02669687 18.48788734 5 18 C2.42362529 16.11484777 1.40332572 14.80665143 0 12 C-0.07065617 9.95944995 -0.08421976 7.91665743 -0.0625 5.875 C-0.05347656 4.77929688 -0.04445312 3.68359375 -0.03515625 2.5546875 C-0.02355469 1.71164063 -0.01195312 0.86859375 0 0 Z " fill="#2B8CB3" transform="translate(239,246)"/>
<path d="M0 0 C7.50769231 0.61538462 7.50769231 0.61538462 10 2.5625 C10.33 3.036875 10.66 3.51125 11 4 C8 6 8 6 5 6 C5.66 7.98 6.32 9.96 7 12 C4.35247996 9.42215154 2.05567935 7.08351902 0 4 C0 2.68 0 1.36 0 0 Z " fill="#1970A0" transform="translate(200,230)"/>
<path d="M0 0 C8.72006388 2.18001597 17.06127918 5.81011957 25 10 C21.22420549 11.25859817 20.60859968 10.49050856 17 9 C14.01643165 8.25285431 11.01292059 7.61702513 8 7 C8 6.34 8 5.68 8 5 C7.05125 4.690625 6.1025 4.38125 5.125 4.0625 C2 3 2 3 0 2 C0 1.34 0 0.68 0 0 Z " fill="#2096C3" transform="translate(230,264)"/>
<path d="M0 0 C1.98 0.99 1.98 0.99 4 2 C4 2.99 4 3.98 4 5 C4.90878906 5.06445312 5.81757813 5.12890625 6.75390625 5.1953125 C10.80154672 6.1986987 11.66874334 7.44952496 13.9375 10.875 C14.54464844 11.75929688 15.15179688 12.64359375 15.77734375 13.5546875 C16.18082031 14.36164063 16.58429688 15.16859375 17 16 C16.67 16.99 16.34 17.98 16 19 C15.34 18.34 14.68 17.68 14 17 C14 16.01 14 15.02 14 14 C13.4225 13.9175 12.845 13.835 12.25 13.75 C9.32205399 12.774018 7.94755463 11.36488777 6 9 C6 8.01 6 7.02 6 6 C5.01 6 4.02 6 3 6 C0 2.66666667 0 2.66666667 0 0 Z " fill="#38C7F5" transform="translate(290,274)"/>
<path d="M0 0 C5.60120371 2.04471126 10.56677932 3.86232737 15 8 C12.03 7.505 12.03 7.505 9 7 C9 6.34 9 5.68 9 5 C4.78099043 4.5638859 4.78099043 4.5638859 1.25 6.5 C0.8375 6.995 0.425 7.49 0 8 C-0.66 8 -1.32 8 -2 8 C-2.66 6.02 -3.32 4.04 -4 2 C-2.68 2 -1.36 2 0 2 C0 1.34 0 0.68 0 0 Z " fill="#36B1D6" transform="translate(275,264)"/>
<path d="M0 0 C3.2542015 2.83430453 4.5206753 4.68607774 5 9 C5.66 9 6.32 9 7 9 C10.09042536 11.99953049 10.96403323 13.45150679 11.25 17.8125 C11.1675 18.864375 11.085 19.91625 11 21 C7.9042003 17.00480895 5.29220688 12.74620716 2.62109375 8.4609375 C1.08797308 5.95362596 1.08797308 5.95362596 -1 4 C-0.625 1.875 -0.625 1.875 0 0 Z " fill="#48C1E6" transform="translate(284,313)"/>
<path d="M0 0 C0.33 0 0.66 0 1 0 C1.19335938 0.66386719 1.38671875 1.32773438 1.5859375 2.01171875 C3.21930037 7.57456277 3.21930037 7.57456277 5.25 13 C5.4975 13.66 5.745 14.32 6 15 C5.67 15.66 5.34 16.32 5 17 C3.35 16.67 1.7 16.34 0 16 C0.66 13.69 1.32 11.38 2 9 C1.01 9.33 0.02 9.66 -1 10 C-2.38125018 7.23749964 -2.19079306 5.05268901 -2 2 C-1.34 1.34 -0.68 0.68 0 0 Z " fill="#2B79AE" transform="translate(202,210)"/>
<path d="M0 0 C3 1 3 1 4 3 C4.07194869 5.88370333 4.09291708 8.74239664 4.0625 11.625 C4.05798828 12.42679688 4.05347656 13.22859375 4.04882812 14.0546875 C4.03703168 16.03649006 4.01909605 18.01825433 4 20 C3.01 19.67 2.02 19.34 1 19 C1.66 19 2.32 19 3 19 C2.67 18.34 2.34 17.68 2 17 C1.92907158 14.7927077 1.91584975 12.58332548 1.9375 10.375 C1.94652344 9.18648437 1.95554688 7.99796875 1.96484375 6.7734375 C1.97644531 5.85820312 1.98804688 4.94296875 2 4 C1.01 3.67 0.02 3.34 -1 3 C-0.67 2.01 -0.34 1.02 0 0 Z " fill="#2781AB" transform="translate(229,240)"/>
<path d="M0 0 C4.12751449 0.60698743 7.3321148 2.03810791 11 4 C11 5.98 11 7.96 11 10 C10.34 10 9.68 10 9 10 C9 8.35 9 6.7 9 5 C5.01322664 4.2693461 5.01322664 4.2693461 1 4 C-1.02977977 5.27219734 -1.02977977 5.27219734 -2 7 C-1.34 4.69 -0.68 2.38 0 0 Z " fill="#3793B6" transform="translate(262,256)"/>
<path d="M0 0 C0 2.97 0 5.94 0 9 C-3.56311466 7.21844267 -5.35645475 5.83236991 -8 3 C-7.34 2.67 -6.68 2.34 -6 2 C-5.01 2.33 -4.02 2.66 -3 3 C-3 2.34 -3 1.68 -3 1 C-1 0 -1 0 0 0 Z " fill="#1C78A3" transform="translate(216,241)"/>
<path d="M0 0 C0.66 1.32 1.32 2.64 2 4 C1.01 5.485 1.01 5.485 0 7 C-0.66 7 -1.32 7 -2 7 C-2 7.66 -2 8.32 -2 9 C-2.99 9 -3.98 9 -5 9 C-5 8.34 -5 7.68 -5 7 C-7.31 7 -9.62 7 -12 7 C-12 6.67 -12 6.34 -12 6 C-11.07767578 5.85304688 -11.07767578 5.85304688 -10.13671875 5.703125 C-5.00590695 4.86708954 -5.00590695 4.86708954 -0.9375 1.875 C-0.628125 1.25625 -0.31875 0.6375 0 0 Z " fill="#051623" transform="translate(213,259)"/>
<path d="M0 0 C1.21065165 3.63195496 0.62784815 5.06531629 -0.4375 8.6875 C-0.72496094 9.68136719 -1.01242187 10.67523438 -1.30859375 11.69921875 C-1.53675781 12.45847656 -1.76492188 13.21773438 -2 14 C-2.66 13.67 -3.32 13.34 -4 13 C-4.59355614 10.35139573 -4.74209269 7.70802678 -5 5 C-4.34 4.67 -3.68 4.34 -3 4 C-3 4.99 -3 5.98 -3 7 C-2.34 7 -1.68 7 -1 7 C-1.020625 6.030625 -1.04125 5.06125 -1.0625 4.0625 C-1 1 -1 1 0 0 Z " fill="#4CCAE7" transform="translate(302,336)"/>
<path d="M0 0 C1.8125 0.0625 1.8125 0.0625 4 1 C5.75 4.5625 5.75 4.5625 7 8 C3.00499382 6.6302836 0.19990508 4.74277578 -3 2 C-2.01 2 -1.02 2 0 2 C0 1.34 0 0.68 0 0 Z " fill="#32AAD6" transform="translate(255,290)"/>
<path d="M0 0 C4.37901897 0.87580379 7.63472464 2.03855768 11 5 C8.23556715 6.07010304 6.46148633 6.16283213 3.6640625 5.17578125 C1.41525773 4.16488321 -0.80159637 3.11596524 -3 2 C-2.01 1.34 -1.02 0.68 0 0 Z " fill="#051825" transform="translate(279,263)"/>
<path d="M0 0 C0.33 0 0.66 0 1 0 C1.12375 0.969375 1.2475 1.93875 1.375 2.9375 C1.684375 4.4534375 1.684375 4.4534375 2 6 C2.66 6.33 3.32 6.66 4 7 C4 7.66 4 8.32 4 9 C4.66 9 5.32 9 6 9 C6.33 10.32 6.66 11.64 7 13 C4.625 12.3125 4.625 12.3125 2 11 C0.8125 8.4375 0.8125 8.4375 0 6 C-0.66 5.67 -1.32 5.34 -2 5 C-1.34 3.35 -0.68 1.7 0 0 Z " fill="#042135" transform="translate(234,255)"/>
<path d="M0 0 C3.63 1.98 7.26 3.96 11 6 C8 8 8 8 5 8 C4.67 8.66 4.34 9.32 4 10 C3.32845067 8.71086513 2.66291141 7.41859796 2 6.125 C1.62875 5.40570313 1.2575 4.68640625 0.875 3.9453125 C0 2 0 2 0 0 Z " fill="#287DA1" transform="translate(218,233)"/>
<path d="M0 0 C1.48199902 0.44909061 2.96055236 0.90956564 4.4375 1.375 C5.26121094 1.63023437 6.08492187 1.88546875 6.93359375 2.1484375 C9 3 9 3 10 5 C9.01 5 8.02 5 7 5 C6.34 5.66 5.68 6.32 5 7 C4.13375 6.319375 4.13375 6.319375 3.25 5.625 C1.2199667 4.15886484 -0.73539843 3.05142216 -3 2 C-2.01 2 -1.02 2 0 2 C0 1.34 0 0.68 0 0 Z " fill="#02111B" transform="translate(207,228)"/>
<path d="M0 0 C1.48280196 0.78483659 2.9611498 1.57809334 4.4375 2.375 C5.67306641 3.03628906 5.67306641 3.03628906 6.93359375 3.7109375 C9 5 9 5 10 7 C8.906875 6.79375 7.81375 6.5875 6.6875 6.375 C2.9161599 5.59653475 2.9161599 5.59653475 0 8 C0 5.36 0 2.72 0 0 Z " fill="#3EB8DA" transform="translate(272,284)"/>
<path d="M0 0 C0.66 0.66 1.32 1.32 2 2 C1.01 2.66 0.02 3.32 -1 4 C-1.144375 4.66 -1.28875 5.32 -1.4375 6 C-2 8 -2 8 -3.875 9.3125 C-6 10 -6 10 -9 9 C-6.03 6.03 -3.06 3.06 0 0 Z " fill="#757575" transform="translate(284,181)"/>
<path d="M0 0 C0.66 0 1.32 0 2 0 C2 2.31 2 4.62 2 7 C3.65 6.67 5.3 6.34 7 6 C7.33 7.65 7.66 9.3 8 11 C2.25 9.25 2.25 9.25 0 7 C-0.125 3.375 -0.125 3.375 0 0 Z " fill="#2B8EBB" transform="translate(225,270)"/>
<path d="M0 0 C1.98 0.66 3.96 1.32 6 2 C6.33 5.3 6.66 8.6 7 12 C0 2.66666667 0 2.66666667 0 0 Z " fill="#49C5E7" transform="translate(296,300)"/>
<path d="M0 0 C2.7343066 2.7343066 2.95340665 4.76993555 3.09765625 8.578125 C3.08605469 9.45984375 3.07445312 10.3415625 3.0625 11.25 C3.05347656 12.14203125 3.04445313 13.0340625 3.03515625 13.953125 C3.02355469 14.62859375 3.01195312 15.3040625 3 16 C-0.42724441 10.85913339 -0.1015597 5.99202204 0 0 Z " fill="#4ACBF5" transform="translate(301,316)"/>
<path d="M0 0 C0.66 0 1.32 0 2 0 C2 2.97 2 5.94 2 9 C1.01 9 0.02 9 -1 9 C-1.33 9.66 -1.66 10.32 -2 11 C-2.28571429 3.57142857 -2.28571429 3.57142857 0 0 Z " fill="#31D9FC" transform="translate(307,317)"/>
<path d="M0 0 C3.16115776 1.36983503 3.9927092 1.9890638 6 5 C5.31550781 4.83628906 4.63101563 4.67257813 3.92578125 4.50390625 C0.6256722 3.93552966 -2.46554069 3.90369233 -5.8125 3.9375 C-6.97394531 3.94652344 -8.13539063 3.95554688 -9.33203125 3.96484375 C-10.21246094 3.97644531 -11.09289062 3.98804688 -12 4 C-11.67 3.01 -11.34 2.02 -11 1 C-7.37 1.33 -3.74 1.66 0 2 C0 1.34 0 0.68 0 0 Z " fill="#1B5475" transform="translate(207,225)"/>
<path d="M0 0 C0.33 0 0.66 0 1 0 C0.9175 0.66 0.835 1.32 0.75 2 C1.05748616 5.68983393 2.41475311 8.04685481 4.22265625 11.23046875 C4.47917969 11.81441406 4.73570312 12.39835937 5 13 C4.67 13.66 4.34 14.32 4 15 C-0.90393413 8.9926807 -0.90393413 8.9926807 -1.375 4.125 C-1 1 -1 1 0 0 Z " fill="#1D73A5" transform="translate(195,244)"/>
<path d="M0 0 C2.64 0.33 5.28 0.66 8 1 C8 2.65 8 4.3 8 6 C5.0280615 4.87548273 2.66559313 3.77706209 0 2 C0 1.34 0 0.68 0 0 Z " fill="#34B4DD" transform="translate(268,277)"/>
<path d="M0 0 C2.66315194 2.66315194 2.94426493 4.65344068 3.09765625 8.359375 C3.08605469 9.14828125 3.07445312 9.9371875 3.0625 10.75 C3.05347656 11.54921875 3.04445313 12.3484375 3.03515625 13.171875 C3.01775391 14.07679688 3.01775391 14.07679688 3 15 C1 13 1 13 0.875 10.375 C0.91625 9.59125 0.9575 8.8075 1 8 C0.34 8 -0.32 8 -1 8 C-0.67 5.36 -0.34 2.72 0 0 Z " fill="#707070" transform="translate(287,150)"/>
<path d="M0 0 C2.56687367 3.8503105 1.83288724 5.58569763 1 10 C0.67 9.01 0.34 8.02 0 7 C-1.32 7 -2.64 7 -4 7 C-3 5 -3 5 -1 4 C-0.34786708 1.97536745 -0.34786708 1.97536745 0 0 Z M-7 7 C-4 8 -4 8 -4 8 Z " fill="#36DCF9" transform="translate(310,307)"/>
<path d="M0 0 C1.9375 0.625 1.9375 0.625 4 2 C4.75 5.125 4.75 5.125 5 8 C2.69 6.02 0.38 4.04 -2 2 C-1.34 1.34 -0.68 0.68 0 0 Z " fill="#41C0E2" transform="translate(288,289)"/>
<path d="M0 0 C3.39417765 3.12621626 5.6062718 5.56541027 7 10 C6.01 10.495 6.01 10.495 5 11 C4.67 9.35 4.34 7.7 4 6 C2.68 5.67 1.36 5.34 0 5 C0 3.35 0 1.7 0 0 Z " fill="#48C9E8" transform="translate(300,282)"/>
<path d="M0 0 C-1 2 -2 4 -3 6 C-5.475 5.01 -5.475 5.01 -8 4 C-6.4425489 0.88509781 -3.40085499 0 0 0 Z " fill="#2B8EB7" transform="translate(258,265)"/>
<path d="M0 0 C3.96 1.98 7.92 3.96 12 6 C7.82412255 7.39195915 5.86525224 5.82323219 2 4 C2 3.34 2 2.68 2 2 C1.34 2 0.68 2 0 2 C0 1.34 0 0.68 0 0 Z " fill="#43A5C8" transform="translate(256,275)"/>
<path d="M0 0 C4.23429756 1.31061591 8.07407404 2.94356259 12 5 C8.29218328 6.23593891 7.32489747 5.5678132 3.8125 4.0625 C2.91144531 3.68222656 2.01039063 3.30195313 1.08203125 2.91015625 C0.39496094 2.60980469 -0.29210937 2.30945313 -1 2 C-0.67 1.34 -0.34 0.68 0 0 Z " fill="#3394BA" transform="translate(243,269)"/>
<path d="M0 0 C2 1.0625 2 1.0625 4 3 C4.25 6.6875 4.25 6.6875 4 10 C1.16625119 6.79663178 0.4794463 4.21912747 0 0 Z " fill="#41C8E9" transform="translate(291,324)"/>
<path d="M0 0 C1.24142712 4.96570849 0.37261666 7.15547062 -1 12 C-1.99 12 -2.98 12 -4 12 C-4 11.01 -4 10.02 -4 9 C-3.01 9 -2.02 9 -1 9 C-0.67 6.03 -0.34 3.06 0 0 Z " fill="#61CFE9" transform="translate(310,317)"/>
<path d="M0 0 C2 3 2 3 1.625 5.6875 C1.41875 6.450625 1.2125 7.21375 1 8 C0.01 8 -0.98 8 -2 8 C-1.125 1.125 -1.125 1.125 0 0 Z " fill="#6B6B6B" transform="translate(293,164)"/>
<path d="M0 0 C3.7910119 1.44950455 7.3874638 3.15172566 11 5 C9.4375 5.75 9.4375 5.75 7 6 C4.49713591 4.86915563 2.32992278 3.47860484 0 2 C0 1.34 0 0.68 0 0 Z " fill="#2E85AD" transform="translate(224,259)"/>
<path d="M0 0 C0.33 0 0.66 0 1 0 C1.66 3.63 2.32 7.26 3 11 C1.68 10.34 0.36 9.68 -1 9 C-0.67 6.03 -0.34 3.06 0 0 Z " fill="#297BAE" transform="translate(223,246)"/>
<path d="M0 0 C0.66 0 1.32 0 2 0 C2.84098656 4.01804691 3.05404945 7.01803543 2 11 C1.67 11 1.34 11 1 11 C0.67 7.37 0.34 3.74 0 0 Z " fill="#1B85BE" transform="translate(223,241)"/>
<path d="M0 0 C1.65 0.33 3.3 0.66 5 1 C5 2.32 5 3.64 5 5 C3.02 5 1.04 5 -1 5 C-0.67 3.35 -0.34 1.7 0 0 Z " fill="#BDCDD0" transform="translate(212,221)"/>
<path d="M0 0 C0 0.66 0 1.32 0 2 C-4.47058824 6 -4.47058824 6 -7 6 C-7.33 5.01 -7.66 4.02 -8 3 C-2.25 0 -2.25 0 0 0 Z " fill="#ABABAB" transform="translate(237,193)"/>
<path d="M0 0 C0.66 0 1.32 0 2 0 C2.33 0.66 2.66 1.32 3 2 C3.66 2 4.32 2 5 2 C4.34 3.32 3.68 4.64 3 6 C2.01 5.67 1.02 5.34 0 5 C-0.75 3 -0.75 3 -1 1 C-0.67 0.67 -0.34 0.34 0 0 Z " fill="#7D7D7D" transform="translate(268,185)"/>
<path d="M0 0 C3.72114571 2.31537955 6.61229661 4.28579473 9 8 C7.35 7.67 5.7 7.34 4 7 C3.67 6.01 3.34 5.02 3 4 C2.01 3.34 1.02 2.68 0 2 C0 1.34 0 0.68 0 0 Z " fill="#4FBAE0" transform="translate(290,272)"/>
<path d="M0 0 C1.32 0.33 2.64 0.66 4 1 C3.67 2.32 3.34 3.64 3 5 C1.35 4.67 -0.3 4.34 -2 4 C-1.34 2.68 -0.68 1.36 0 0 Z " fill="#1A7BB0" transform="translate(204,222)"/>
<path d="M0 0 C1.32 0.99 2.64 1.98 4 3 C3.071875 3.185625 3.071875 3.185625 2.125 3.375 C-0.19120832 3.87197356 -0.19120832 3.87197356 -2 6 C-2.66 4.68 -3.32 3.36 -4 2 C-2.68 2 -1.36 2 0 2 C0 1.34 0 0.68 0 0 Z " fill="#33A7CE" transform="translate(275,264)"/>
<path d="M0 0 C0.99 0 1.98 0 3 0 C3.66 1.65 4.32 3.3 5 5 C3.68 5 2.36 5 1 5 C1 4.34 1 3.68 1 3 C0.34 3 -0.32 3 -1 3 C-0.67 2.01 -0.34 1.02 0 0 Z " fill="#25A7CE" transform="translate(259,263)"/>
<path d="M0 0 C2.475 0.99 2.475 0.99 5 2 C5 3.32 5 4.64 5 6 C4.01 6 3.02 6 2 6 C1.34 4.02 0.68 2.04 0 0 Z " fill="#217EAF" transform="translate(210,250)"/>
<path d="M0 0 C2.76390737 2.40339772 3.04065919 3.16263678 4 7 C1.69 5.35 -0.62 3.7 -3 2 C-2.01 1.34 -1.02 0.68 0 0 Z " fill="#43B6D6" transform="translate(275,305)"/>
<path d="M0 0 C0.66 1.32 1.32 2.64 2 4 C2.66 4 3.32 4 4 4 C4.33 4.99 4.66 5.98 5 7 C1.34683329 5.75023244 0.21934164 5.32901247 -2 2 C-1.34 2 -0.68 2 0 2 C0 1.34 0 0.68 0 0 Z " fill="#44B4DB" transform="translate(280,282)"/>
<path d="M0 0 C0.66 0 1.32 0 2 0 C2.33 2.31 2.66 4.62 3 7 C2.01 7.33 1.02 7.66 0 8 C0 5.36 0 2.72 0 0 Z " fill="#000A1A" transform="translate(216,242)"/>
</svg>
